<?xml version="1.0" encoding="UTF-8"?>
<!DOCTYPE svg PUBLIC "-//W3C//DTD SVG 1.1//EN" "http://www.w3.org/Graphics/SVG/1.1/DTD/svg11.dtd">
<!-- Creator: CorelDRAW 2019 (64-Bit) -->
<svg xmlns="http://www.w3.org/2000/svg" xml:space="preserve" width="500px" height="319px" version="1.1" style="shape-rendering:geometricPrecision; text-rendering:geometricPrecision; image-rendering:optimizeQuality; fill-rule:evenodd; clip-rule:evenodd"
viewBox="0 0 156.81 100.1"
 xmlns:xlink="http://www.w3.org/1999/xlink">
 <defs>
  <style type="text/css">
   <![CDATA[
    .str0 {stroke:#00AFEF;stroke-width:0.32;stroke-miterlimit:22.9256}
    .fil1 {fill:#00AFEF}
    .fil0 {fill:#00AFEF;fill-rule:nonzero}
   ]]>
  </style>
 </defs>
 <g id="Capa_x0020_1">
  <metadata id="CorelCorpID_0Corel-Layer"/>
  <path class="fil0" d="M56.17 59.47l0 -11.52 -7.43 11.52 7.43 0zm0 11.35l0 -5.97 -12.76 0 0 -5.67 12 -18.57 7.16 0 0 18.86 3.12 0 0 5.38 -3.12 0 0 5.97 -6.4 0z"/>
  <path id="1" class="fil0" d="M75.34 55.72c0,2.98 0.35,5.32 1.05,7.02 0.7,1.69 1.66,2.54 2.89,2.54 1.23,0 2.2,-0.84 2.9,-2.52 0.7,-1.69 1.05,-4.03 1.05,-7.04 0,-3.03 -0.35,-5.39 -1.04,-7.07 -0.69,-1.69 -1.67,-2.53 -2.91,-2.53 -1.21,0 -2.17,0.85 -2.88,2.55 -0.71,1.7 -1.06,4.05 -1.06,7.05zm-6.92 0c0,-5.04 0.96,-8.98 2.89,-11.83 1.93,-2.84 4.57,-4.26 7.95,-4.26 3.38,0 6.04,1.42 7.98,4.27 1.94,2.85 2.9,6.79 2.9,11.82 0,5.03 -0.96,8.97 -2.9,11.81 -1.94,2.85 -4.6,4.27 -7.98,4.27 -3.38,0 -6.02,-1.42 -7.95,-4.26 -1.93,-2.84 -2.89,-6.78 -2.89,-11.82z"/>
  <path id="2" class="fil0" d="M105.6 59.47l0 -11.52 -7.43 11.52 7.43 0zm0 11.35l0 -5.97 -12.76 0 0 -5.67 12 -18.57 7.16 0 0 18.86 3.11 0 0 5.38 -3.11 0 0 5.97 -6.4 0z"/>
  <g id="_2324527778272">
   <path class="fil1" d="M78.57 22.12l-0.26 0.26 0.26 -0.26zm71.6 -8.88l-2.97 0.2 -3.79 4.59 0.38 -5.64 -2.24 2.12 -0.3 -1.31 -2.11 24.09 -2.42 -24.03 -0.81 3.75 -2.22 -3.56 -1.76 4.76 -2.16 -5.99 -3.12 3.25 -1.2 -2.2 -5.77 3.11 -4.24 -3.94 -2.49 6.91 -3.29 -5.82 -1 4.14 -1.65 -5.61 -1.73 21.72 -4.21 -21.74 -1.3 2.44 -1.34 -1.52 -1.02 5.09 -3.43 -4.72 -7.54 -0.91 0.17 0.37c0.39,0.81 0.54,1.76 0.87,2.76 0.7,2.14 1.35,3.45 1.47,5.78 0.24,5.12 4.27,19.81 4.13,21.5 -0.2,2.31 -4.92,5.83 -6.99,-2.57 -0.51,-2.03 -1.08,-3.92 -1.56,-5.96l-0.16 0.36c-0.33,0.77 -0.81,1.58 -1.68,1.95 -1.46,0.63 -2.35,0.06 -3.6,-0.23 -0.36,1.35 -2.29,2.26 -3.86,1.53 -1.61,-0.75 -1.84,-1.97 -1.84,-4.39 -0.04,0.06 -0.09,0.2 -0.1,0.17l-1.82 6.21c-0.5,1.99 -1.25,4.89 -2.13,6.42 -1.62,2.82 -6.57,1.87 -4.88,-3.84l2.8 -9.9c0.58,-1.96 1.26,-5.42 0.12,-7.3 -1.91,-3.18 -2.28,-1.76 -0.89,-5.91 0.68,-2.04 1.43,-4.3 1.92,-6.37l-7.02 0.88 -3.42 4.74 -1.04 -5.09 -1.33 1.53 -1.31 -2.43 -4.11 21.76 -1.83 -21.72 -1.62 5.63 -1.02 -4.14 -3.27 5.84 -2.52 -6.9 -4.23 3.96 -5.78 -3.07 -1.18 2.2 -3.14 -3.23 -2.13 6 -1.78 -4.76 -2.2 3.58 -0.84 -3.75 -2.29 24.05 -2.24 -24.08 -0.29 1.3 -2.25 -2.1 0.41 5.64 -3.82 -4.57 -2.97 -0.18 0.07 -1.17 3.47 0.21 1.83 2.18 -0.37 -4.99 2.94 2.75 1.45 -6.52 1.78 19.13 1.81 -19.04 1.81 8.09 1.95 -3.16 1.5 4 1.69 -4.76 3.33 3.43 0.98 -1.83 6.08 3.23 4.9 -4.59 2.26 6.17 3.46 -6.2 0.69 2.78 2.16 -7.5 1.64 19.47 3.14 -16.6 2.07 3.86 1.77 -2.03 0.98 4.79 2.16 -2.99 8.74 -1.11 0.27 0.27c0.03,0.03 -0.01,0.09 -0.01,0.14 0,0.03 -0.01,0.05 -0.01,0.08 -0.2,2.71 -1.51,5.99 -2.34,8.35 -1.01,2.85 1.07,3.63 3.15,7.55 2.07,0 9.3,1.2 8.14,-2.41 -0.34,-1.05 -1.13,-1.45 -1.66,-2.25 -1.31,0.63 -4.35,1.75 -5.45,0.26 1.04,-1.55 3.49,-0.15 5.78,-2.26 0.67,-0.62 1.22,-1.68 1.52,-2.63 0.17,-0.55 0.16,-1.09 0.36,-1.72 0.27,-0.87 0.19,-0.83 1.16,-0.91 0.49,2.31 -0.76,4.38 -1.82,5.96 1.62,-0.38 2.78,-0.98 4.06,0.61 0.97,1.21 1.13,2.62 1.54,4.42 0.38,1.67 0.61,2.99 0.99,4.71l2.43 9.24c1.15,4.64 5.21,4.45 3.84,-0.74l-3.78 -19.8c-0.2,-1.85 -0.84,-3.02 -1.34,-4.63 -0.73,-2.41 -0.79,-4.29 -0.58,-4.64 0.01,-0.01 0.02,-0.02 0.02,-0.03 0.01,0 0.01,-0.01 0.01,-0.01l0.11 -0.07 8.75 1.06 2.17 2.98 0.95 -4.8 1.79 2.03 2.05 -3.87 3.22 16.59 1.79 -16.16 1.96 4.16 0.66 -2.78 3.5 6.18 2.23 -6.18 4.92 4.57 6.06 -3.26 0.99 1.82 3.31 -3.45 1.72 4.75 1.48 -4.01 1.96 3.15 1.77 -8.09 1.91 19.02 1.68 -19.13 1.49 6.51 2.92 -2.77 -0.34 5 1.81 -2.19 3.47 -0.23 0.08 1.16zm-71.86 9.14l0 0zm-0.26 6.74l-3.63 0c0,2.49 -0.4,7.77 1.82,7.77 3.18,0 1.81,-3.33 1.81,-7.77zm2.59 -6.22c-1.06,0 -1.06,0.12 -1.81,0.52 0.3,1.13 1.19,1.27 1.19,2.85 -0.01,1.65 -1.01,1.39 -0.91,3.06l0.23 3.95c0.14,3.36 4.17,2.99 3.88,0.04l-0.64 -7.95c-0.21,-1.03 -0.95,-2.47 -1.94,-2.47zm-7.51 6.22c-4.6,0 -2.47,0 -3.89,-1.04 0,2.4 -2.5,11.67 -3.52,14.37 -0.55,1.45 -1.17,3.76 0.81,4.16 2.27,0.47 3.36,-5.45 4.01,-7.9 0.85,-3.24 1.82,-6.28 2.59,-9.59z"/>
   <path class="fil0" d="M0 14.03l0 -8.86 5.46 0 0 1.83 -3.41 0 0 1.6 2.92 0 0 1.82 -2.92 0 0 1.75 3.46 0 0 1.86 -5.51 0zm38.21 -11l-0.35 0 0 2.45 0.45 0c0.53,0 0.94,-0.11 1.22,-0.32 0.28,-0.22 0.42,-0.53 0.42,-0.93 0,-0.42 -0.13,-0.73 -0.4,-0.92 -0.28,-0.19 -0.72,-0.28 -1.34,-0.28zm-2.4 7.25l0 -8.87 2.28 0c0.73,0 1.29,0.05 1.7,0.15 0.4,0.09 0.75,0.25 1.07,0.48 0.33,0.23 0.58,0.53 0.76,0.87 0.18,0.35 0.27,0.72 0.27,1.11 0,0.56 -0.14,1.04 -0.42,1.46 -0.28,0.42 -0.69,0.75 -1.23,0.99l2.71 3.81 -2.42 0 -2.37 -3.48 -0.3 0 0 3.48 -2.05 0zm41.7 -4.87l-0.35 0 0 2.45 0.44 0c0.54,0 0.95,-0.11 1.23,-0.32 0.28,-0.22 0.42,-0.53 0.42,-0.93 0,-0.42 -0.14,-0.73 -0.41,-0.92 -0.27,-0.19 -0.72,-0.28 -1.33,-0.28zm-2.4 7.25l0 -8.87 2.27 0c0.73,0 1.3,0.05 1.7,0.15 0.4,0.09 0.76,0.25 1.07,0.48 0.33,0.23 0.59,0.52 0.77,0.87 0.18,0.35 0.27,0.72 0.27,1.1 0,0.56 -0.14,1.05 -0.43,1.47 -0.28,0.42 -0.69,0.75 -1.22,0.99l2.7 3.81 -2.42 0 -2.36 -3.48 -0.3 0 0 3.48 -2.05 0zm34.03 -7.94c0,0.77 0.23,1.42 0.68,1.94 0.45,0.51 1,0.78 1.66,0.78 0.67,0 1.22,-0.26 1.67,-0.78 0.45,-0.52 0.67,-1.17 0.67,-1.94 0,-0.78 -0.22,-1.43 -0.67,-1.95 -0.45,-0.52 -1,-0.78 -1.67,-0.78 -0.66,0 -1.21,0.26 -1.66,0.78 -0.45,0.52 -0.68,1.17 -0.68,1.95zm-2.18 0c0,-0.66 0.12,-1.27 0.34,-1.84 0.23,-0.58 0.56,-1.09 1,-1.54 0.42,-0.43 0.9,-0.76 1.45,-0.99 0.55,-0.24 1.13,-0.35 1.73,-0.35 0.61,0 1.18,0.12 1.74,0.35 0.55,0.23 1.04,0.57 1.47,1 0.43,0.44 0.76,0.94 0.98,1.51 0.22,0.58 0.33,1.2 0.33,1.86 0,0.55 -0.07,1.08 -0.23,1.56 -0.16,0.49 -0.38,0.94 -0.69,1.34 -0.43,0.58 -0.96,1.02 -1.59,1.34 -0.63,0.32 -1.3,0.48 -2.01,0.48 -0.6,0 -1.17,-0.12 -1.72,-0.35 -0.55,-0.23 -1.03,-0.57 -1.46,-1 -0.44,-0.45 -0.77,-0.97 -1,-1.53 -0.22,-0.57 -0.34,-1.19 -0.34,-1.84zm45.11 1.31l-0.34 0 0 2.46 0.44 0c0.54,0 0.94,-0.11 1.22,-0.33 0.29,-0.21 0.43,-0.52 0.43,-0.92 0,-0.43 -0.14,-0.73 -0.41,-0.92 -0.28,-0.19 -0.72,-0.29 -1.34,-0.29zm-2.4 7.25l0 -8.86 2.28 0c0.73,0 1.3,0.05 1.7,0.14 0.4,0.1 0.76,0.26 1.07,0.48 0.33,0.24 0.58,0.53 0.77,0.88 0.18,0.35 0.27,0.71 0.27,1.1 0,0.56 -0.15,1.05 -0.43,1.47 -0.28,0.42 -0.69,0.74 -1.23,0.98l2.71 3.81 -2.42 0 -2.36 -3.48 -0.3 0 0 3.48 -2.06 0z"/>
  </g>
  <g id="_2324527780320">
   <path id="path7" class="fil1" d="M56.71 80.97c1.75,0 3.04,0.36 3.88,1.04 0.81,0.71 1.23,1.59 1.23,2.62l0 3.89 -1.28 0.5 -2.36 -0.75 -2.69 1.39 -0.96 -0.37 -1.45 0.53 -0.68 -0.16c0.11,-0.14 0.24,-0.26 0.37,-0.38 0.31,-0.27 0.68,-0.47 1.09,-0.6 0.35,-0.13 0.74,-0.26 1.19,-0.42 0.46,-0.16 0.91,-0.29 1.36,-0.48 0.43,-0.17 0.78,-0.26 1.14,-0.39 0.32,-0.13 0.52,-0.17 0.61,-0.23 0.07,-0.03 0.17,-0.07 0.3,-0.13 0.12,-0.1 0.25,-0.19 0.38,-0.32 0.13,-0.13 0.23,-0.3 0.3,-0.46 0.09,-0.19 0.12,-0.39 0.12,-0.65l0 -0.55c0,-0.22 -0.03,-0.38 -0.12,-0.61 -0.07,-0.23 -0.23,-0.39 -0.43,-0.62 -0.19,-0.16 -0.45,-0.29 -0.77,-0.42 -0.33,-0.09 -0.75,-0.16 -1.27,-0.16 -1,0 -1.65,0.23 -2.04,0.62 -0.29,0.35 -0.48,0.81 -0.52,1.29 0,0.13 -0.09,0.2 -0.19,0.2l-2.2 0c-0.1,0 -0.2,-0.1 -0.2,-0.23l0 -0.52c0,-0.49 0.1,-0.97 0.26,-1.39 0.2,-0.42 0.52,-0.84 0.94,-1.2 0.42,-0.29 0.97,-0.62 1.62,-0.75 0.68,-0.16 1.46,-0.29 2.37,-0.29l0 0 0 0z"/>
   <path id="path7_0" class="fil1" d="M19.23 80.97c1.75,0 3.08,0.36 3.89,1.04 0.81,0.71 1.23,1.59 1.23,2.62l0 3.99 -1.07 0.4 -1.18 -0.97 -0.92 0.86 -0.86 -0.48 -1.82 1.23 -1.29 -0.55 -0.82 0.84 -0.26 -0.7 -0.78 -0.01 0.04 -0.03c0.28,-0.23 0.6,-0.41 0.96,-0.53 0.38,-0.13 0.77,-0.26 1.23,-0.42 0.45,-0.16 0.9,-0.29 1.36,-0.48 0.42,-0.17 0.77,-0.26 1.13,-0.39 0.29,-0.13 0.52,-0.17 0.62,-0.23 0.06,-0.03 0.16,-0.07 0.29,-0.13 0.13,-0.1 0.22,-0.19 0.39,-0.32 0.13,-0.13 0.22,-0.3 0.29,-0.46 0.09,-0.19 0.13,-0.39 0.13,-0.65l0 -0.55c0,-0.22 -0.04,-0.38 -0.13,-0.61 -0.07,-0.23 -0.23,-0.39 -0.42,-0.62 -0.2,-0.16 -0.49,-0.29 -0.78,-0.42 -0.32,-0.09 -0.75,-0.16 -1.26,-0.16 -1.01,0 -1.66,0.23 -2.04,0.62 -0.3,0.35 -0.49,0.81 -0.52,1.29 0,0.13 -0.1,0.2 -0.23,0.2l-2.11 0c-0.09,0 -0.19,-0.1 -0.19,-0.23l0 -0.52c0,-0.49 0.1,-0.97 0.26,-1.39 0.19,-0.49 0.52,-0.88 0.94,-1.2 0.42,-0.32 0.97,-0.62 1.62,-0.78 0.65,-0.13 1.39,-0.26 2.3,-0.26l0 0 0 0z"/>
   <path id="path7_1" class="fil1" d="M46.37 89.6l0 1.04 0 7.74c0,0.1 -0.09,0.2 -0.19,0.2l-2.2 0c-0.1,0 -0.2,-0.1 -0.2,-0.2l0 -7.74 0 -1.42 0.54 -0.22 0.33 1.02 0.53 -0.7 1.19 0.28z"/>
   <path id="path7_2" class="fil1" d="M48.93 80.97l1.46 0c0.13,0 0.23,0.13 0.19,0.26l-0.51 1.88c0,0.1 -0.1,0.16 -0.17,0.16l-1.03 0c-0.55,0 -0.97,0.07 -1.33,0.23 -0.29,0.16 -0.62,0.29 -0.75,0.49 -0.16,0.22 -0.29,0.38 -0.35,0.61 -0.03,0.23 -0.07,0.42 -0.07,0.62l0 3.01 -1.19 -0.29 -0.53 0.7 -0.33 -1.02 -0.54 0.23 0 -3.18c0,-0.23 0.03,-0.52 0.13,-0.94 0.07,-0.43 0.29,-0.81 0.65,-1.23 0.32,-0.39 0.84,-0.75 1.55,-1.07 0.68,-0.33 1.62,-0.46 2.82,-0.46l0 0 0 0z"/>
   <path id="path7_3" class="fil1" d="M38.99 86.89l0 -7.1c0,-0.13 0.09,-0.22 0.19,-0.22l2.17 0c0.13,0 0.2,0.09 0.2,0.22l0.02 7.59 -1.43 0.59 -0.54 -1.08 -0.61 0z"/>
   <path id="path7_4" class="fil1" d="M31.21 88l0 -6.83c0,-0.13 0.1,-0.23 0.23,-0.23l2.14 0c0.13,0 0.22,0.1 0.22,0.23l0 7.05 -1.23 -0.01 -0.54 0.75 -0.82 -0.96z"/>
   <path id="path7_5" class="fil1" d="M41.58 94.33l0 0.52c0,0.26 -0.03,0.58 -0.13,0.97 -0.07,0.39 -0.29,0.84 -0.65,1.23 -0.32,0.39 -0.84,0.75 -1.52,1.07 -0.71,0.26 -1.65,0.42 -2.88,0.42 -1.24,0 -2.14,-0.16 -2.85,-0.42 -0.72,-0.29 -1.17,-0.65 -1.56,-1.07 -0.32,-0.39 -0.55,-0.84 -0.61,-1.23 -0.07,-0.42 -0.17,-0.74 -0.17,-0.97l0 -4.24 0 -1.24 0.82 0.97 0.54 -0.75 1.23 0.01 0 1.02 0 3.45c0,0.39 0.04,0.65 0.1,0.85 0.07,0.22 0.16,0.45 0.33,0.61 0.16,0.23 0.42,0.39 0.74,0.52 0.32,0.13 0.78,0.19 1.33,0.19 0.61,0 1.07,-0.06 1.42,-0.19 0.33,-0.13 0.62,-0.29 0.78,-0.49 0.16,-0.19 0.29,-0.39 0.36,-0.61 0.03,-0.23 0.13,-0.39 0.13,-0.94l0 -3.38 0 -0.99 0.61 0 0.54 1.08 1.43 -0.59 0 0.5 0.01 3.7 0 0z"/>
   <path id="path7_6" class="fil1" d="M29.11 89.37l0 1.24 0 7.74c0,0.13 -0.1,0.23 -0.23,0.23l-2.14 0c-0.13,0 -0.22,-0.1 -0.22,-0.23l0 -7.74 0 -1.44 0.46 -0.17 0.75 1.39 0.38 -1.02 1 0z"/>
   <line id="path7_7" class="fil1" x1="26.74" y1="76.52" x2="26.74" y2= "76.52" />
   <path id="path7_8" class="fil1" d="M26.74 73.77l2.14 0c0.13,0 0.23,0.09 0.23,0.19l0 12.66 -1 0 -0.38 1.02 -0.75 -1.39 -0.46 0.17 0 -12.46c0,-0.1 0.09,-0.19 0.22,-0.19z"/>
   <polygon class="fil0" points="130.58,75.19 136.98,75.19 136.98,89.53 136.98,90.6 134.9,90.89 131.89,89.01 130.58,89.47 "/>
   <polygon class="fil0" points="136.98,93.35 134.9,93.63 131.89,91.76 130.58,92.22 130.58,92.27 130.58,100.1 142.7,100.1 142.7,95.93 136.98,95.93 "/>
   <polygon class="fil0" points="122.66,94.63 118.96,94.63 118.42,98.72 112.16,98.72 113.56,90.86 114.22,87.14 114.87,87.21 115.84,89.04 117.5,92.42 118.85,91.78 120.03,93.07 121.8,91.67 124.48,93.01 128.16,91.71 129.46,98.72 123.16,98.72 "/>
   <polygon class="fil0" points="108.96,86.58 108.96,90.85 108.96,98.72 102.63,98.72 102.63,90.84 102.63,86.18 104.99,85.66 106.34,87.48 107.3,86.41 "/>
   <polygon class="fil0" points="99,73.81 112.55,73.81 112.55,77.98 108.96,77.98 108.96,83.84 107.3,83.66 106.34,84.73 104.99,82.91 102.63,83.43 102.63,77.98 99,77.98 "/>
   <polygon class="fil0" points="97.34,88.72 97.34,90.44 92.9,90.44 92.9,92.2 92.9,95.93 98.42,95.93 98.42,100.1 86.49,100.1 86.49,92.19 86.49,89.23 88.35,88.32 91.25,88.96 93.45,88.1 94.79,89.29 "/>
   <polygon class="fil0" points="86.49,75.19 98.26,75.19 98.26,79.36 92.9,79.36 92.9,83.53 97.34,83.53 97.34,85.97 94.79,86.54 93.45,85.36 91.25,86.21 88.35,85.57 86.49,86.48 "/>
   <polygon class="fil0" points="69.27,91.65 69.27,92.15 69.27,100.1 63.48,100.1 63.48,92.14 63.48,90.81 64.24,90.52 65.37,91.59 67.14,91.06 68.22,91.92 "/>
   <polygon class="fil0" points="76.36,89.5 76.12,90.79 74.64,98.72 72.24,98.72 70.74,90.78 70.58,89.94 72.19,89.52 73.96,91.03 74.82,89.79 "/>
   <polygon class="fil0" points="83.4,89.36 83.4,90.81 83.4,98.72 77.57,98.72 77.57,90.79 77.57,89.26 78.74,89.04 79.76,91.13 "/>
   <polygon class="fil0" points="73.83,85.88 75.83,75.19 83.4,75.19 83.4,87.98 79.76,89.76 78.74,87.66 77.57,87.89 77.57,83.29 77.26,83.29 76.36,88.12 74.82,88.42 73.96,89.65 72.19,88.15 70.58,88.56 69.58,83.29 69.27,83.29 69.27,88.9 68.22,89.17 67.14,88.31 65.37,88.85 64.24,87.77 63.48,88.07 63.48,75.19 70.95,75.19 73.21,85.88 "/>
   <path id="path7_9" class="fil1" d="M61.82 89.9l-1.28 0.49 -2.36 -0.75 -2.69 1.4 -0.96 -0.38 -1.45 0.54 -0.68 -0.16c-0.08,0.1 -0.16,0.2 -0.23,0.31 -0.39,0.65 -0.58,1.36 -0.58,2.11l0 1.39c0,0.36 0.06,0.75 0.19,1.2 0.13,0.42 0.39,0.81 0.78,1.17 0.39,0.35 0.91,0.68 1.55,0.9 0.65,0.23 1.53,0.36 2.6,0.36 1.06,0 1.91,-0.1 2.59,-0.36 0.65,-0.22 1.2,-0.55 1.55,-0.9 0.36,-0.33 0.62,-0.75 0.75,-1.17 0.13,-0.45 0.22,-0.81 0.22,-1.2l0 -4.18 0 -0.77zm-2.54 0.42c-0.03,0.19 -0.16,0.35 -0.29,0.45 -0.16,0.13 -0.29,0.16 -0.45,0.23 -0.29,0.12 -0.62,0.22 -0.97,0.35 -0.33,0.13 -0.68,0.23 -0.98,0.33 -0.35,0.13 -0.74,0.25 -1.03,0.35 -0.23,0.13 -0.46,0.26 -0.68,0.42 -0.2,0.16 -0.36,0.36 -0.52,0.62 -0.16,0.26 -0.23,0.55 -0.23,0.94 0,0.78 0.2,1.33 0.55,1.71 0.36,0.36 1.04,0.56 2.01,0.56 1,0 1.69,-0.2 2.07,-0.59 0.36,-0.39 0.55,-0.94 0.55,-1.65l-0.03 -3.73 0 0.01z"/>
   <path id="path7_10" class="fil1" d="M24.35 89.99l-1.07 0.4 -1.18 -0.96 -0.92 0.86 -0.86 -0.49 -1.82 1.24 -1.29 -0.56 -0.82 0.85 -0.26 -0.71 -0.78 0c-0.25,0.21 -0.46,0.45 -0.66,0.73 -0.39,0.65 -0.58,1.36 -0.58,2.11l0 1.39c0,0.39 0.1,0.78 0.23,1.2 0.13,0.42 0.35,0.81 0.74,1.17 0.39,0.35 0.91,0.68 1.56,0.9 0.68,0.23 1.52,0.36 2.59,0.36 1.07,0 1.94,-0.1 2.59,-0.36 0.68,-0.22 1.2,-0.55 1.59,-0.9 0.35,-0.33 0.61,-0.75 0.74,-1.17 0.13,-0.45 0.2,-0.81 0.2,-1.2l0 -4.25 0 -0.61zm-2.43 0.27c-0.03,0.2 -0.16,0.36 -0.29,0.46 -0.16,0.13 -0.29,0.16 -0.45,0.22 -0.3,0.13 -0.62,0.23 -0.98,0.36 -0.32,0.13 -0.68,0.23 -0.97,0.32 -0.35,0.13 -0.74,0.26 -1.03,0.36 -0.23,0.13 -0.46,0.26 -0.68,0.42 -0.2,0.16 -0.36,0.36 -0.52,0.62 -0.16,0.26 -0.23,0.55 -0.23,0.94 0,0.77 0.2,1.32 0.55,1.71 0.36,0.36 1.04,0.55 2.01,0.55 1,0 1.68,-0.19 2.07,-0.58 0.36,-0.39 0.55,-0.94 0.55,-1.65l-0.03 -3.73 0 0z"/>
   <path class="fil1 str0" d="M125.85 73.58l-9.27 0 -1.88 10.58 0.66 0.07 2.63 5.21 1.34 -0.65 1.18 1.29 1.77 -1.4 2.69 1.35 3.67 -1.31 -2.79 -15.14zm-4.48 3.41l-0.96 9.11 2.78 0 -1.2 -9.11 -0.62 0z"/>
  </g>
 </g>
</svg>
