<?xml version="1.0" encoding="UTF-8"?>
<!DOCTYPE svg PUBLIC "-//W3C//DTD SVG 1.1//EN" "http://www.w3.org/Graphics/SVG/1.1/DTD/svg11.dtd">
<!-- Creator: CorelDRAW 2019 (64-Bit) -->
<svg xmlns="http://www.w3.org/2000/svg" xml:space="preserve" width="263px" height="339px" version="1.1" style="shape-rendering:geometricPrecision; text-rendering:geometricPrecision; image-rendering:optimizeQuality; fill-rule:evenodd; clip-rule:evenodd"
viewBox="0 0 14.39 18.6"
 xmlns:xlink="http://www.w3.org/1999/xlink">
 <defs>
  <style type="text/css">
   <![CDATA[
    .fil3 {fill:#FEFEFE}
    .fil0 {fill:#373435}
    .fil1 {fill:#ED3237}
    .fil4 {fill:#00AFEF}
    .fil2 {fill:#0098DA}
   ]]>
  </style>
 </defs>
 <g id="Capa_x0020_1">
  <metadata id="CorelCorpID_0Corel-Layer"/>
  <path class="fil0" d="M6.83 6.4c-0.15,-0.1 -0.16,-0.16 -0.28,-0.27 -0.59,-0.56 -1.28,-0.6 -1.96,-0.19 -0.27,0.16 -0.36,0.35 -0.59,0.5l-0.33 -1.6c-0.09,-0.62 -0.17,-1.09 -0.17,-1.81 0,-0.86 0.03,-1.77 -0.63,-2.28 -1.14,-0.86 -2.87,0.28 -2.87,1.65 0,1.94 0.26,3.01 0.83,4.73 0.18,0.55 0.32,0.83 0.53,1.32 0.29,0.69 0.27,0.39 0.1,1.51 -0.14,0.88 -0.07,2.2 0.15,3.01 0.35,1.28 1.12,2.18 2.36,2.69 0.2,0.07 0.18,0.06 0.22,0.29 0.05,0.36 0.13,1.88 0.37,2.16 0.19,0.21 1.2,0.36 1.59,0.43 0.33,0.05 0.62,0.01 0.96,0.04 0.41,0.05 0.53,-0.01 0.94,0 0.35,0 1.6,-0.06 1.6,-0.51 0,-0.32 -0.25,-1.33 -0.25,-2.02 0.93,-0.22 1.29,-0.82 1.55,-0.84 0.28,-0.03 0.6,0.01 0.82,-0.03 1.91,-0.38 1.9,-2.18 0.94,-3.21 -0.4,-0.43 -0.39,-0.24 -0.23,-1.35l0.61 -4.24c0.11,-0.54 0.21,-1.07 0.36,-1.57 0.28,-0.96 0.45,-1.31 0.74,-2.12 0.05,-0.13 0.1,-0.22 0.12,-0.34 0.04,-0.17 0.04,-0.27 0.07,-0.45 0.2,-1.65 -1.74,-2.34 -3.17,-1.61 -1.42,0.72 -1.76,2.92 -1.95,4.41l-0.17 1.44c-0.05,0.16 -0.04,0.08 -0.18,0 -0.49,-0.27 -1.13,-0.3 -1.59,-0.05 -0.19,0.1 -0.32,0.22 -0.49,0.31z"/>
  <path class="fil1" d="M5.26 17.98c-0.15,-0.02 -0.31,-0.05 -0.41,-0.12 -0.18,-0.27 -0.32,-1.96 -0.34,-2.41 -1,-0.22 -1.71,-0.87 -2.11,-1.55 -0.49,-0.8 -0.68,-1.92 -0.65,-3.03 0.02,-0.53 0.09,-1.14 0.19,-1.64 0.09,-0.39 0.04,-0.29 -0.12,-0.64 -0.49,-1.11 -0.91,-2.19 -1.18,-3.42 -0.18,-0.84 -0.47,-2.46 -0.19,-3.24 0.42,-1.15 2.71,-2.04 2.68,0.64 0,0.61 0.01,1.15 0.09,1.75 0.06,0.53 0.46,2.75 0.69,3.01 0.77,-1.63 2.33,-1.75 2.79,-0.22 0.2,-0.15 1.01,-1.4 2.19,-0.54 0.19,0.15 0.43,0.58 0.48,0.61 0.19,-1.9 0.41,-5.27 1.56,-6.24 0.73,-0.62 2.12,-0.9 2.8,-0.05 0.68,0.87 -0.06,2.09 -0.37,2.95 -0.67,1.85 -0.97,4.47 -1.22,6.57 -0.04,0.28 -0.08,0.57 -0.11,0.85 -0.07,0.55 -0.12,0.38 0.17,0.68 0.25,0.25 0.64,0.74 0.74,1.24 0.13,0.61 -0.16,1.12 -0.49,1.37 -0.46,0.33 -1.08,0.29 -1.71,0.26 -0.16,0.1 -0.21,0.2 -0.36,0.33 -0.64,0.53 -1.21,0.55 -1.38,0.66 0.03,0.78 0.22,1.49 0.29,2.23 -0.14,0.07 -0.21,0.08 -0.39,0.07 -0.57,-3.64 -0.44,-2.4 0.67,-2.93 0.23,-0.11 0.53,-0.31 0.65,-0.47 -0.57,-0.29 -1.5,-0.37 -2.67,-1.27 -0.19,-0.14 -0.27,-0.23 -0.43,-0.38 -0.28,-0.27 -0.59,-0.14 -0.97,-0.62 -0.18,0.18 -0.21,0.62 -0.2,0.92 0.02,0.43 0.15,0.55 0.24,0.87 -0.48,-0.41 -0.52,-0.99 -0.44,-1.78 -0.37,0.15 -0.48,0.29 -0.99,0.3 -0.35,0 -0.72,-0.1 -0.97,-0.27 -1.09,-0.72 -0.64,-2.86 -0.34,-3.97 0.14,-0.49 0.24,-0.43 0.07,-0.94 -0.27,-0.85 -0.56,-2.16 -0.68,-3.03 -0.05,-0.37 -0.1,-0.74 -0.11,-1.12 -0.02,-0.42 0.05,-0.84 0.01,-1.26 -0.08,-0.79 -0.64,-1.23 -1.36,-0.73 -0.6,0.4 -0.69,0.84 -0.62,1.78 0.11,1.45 0.45,2.75 0.92,4 0.1,0.26 0.72,1.7 0.72,1.77 0.01,0.15 -0.25,1.17 -0.24,2.23 0.01,1.63 0.52,2.79 1.49,3.43 0.24,0.16 0.54,0.3 0.83,0.39 0.68,0.22 0.32,0.15 0.59,1.9 0.06,0.33 0.16,0.74 0.19,1.06z"/>
  <path class="fil2" d="M9.64 10.32c0.24,0.16 0.75,0.35 1.02,0.5 0.19,0.11 0.86,0.56 0.94,0.58 0.29,-2.38 0.64,-6.05 1.59,-8.19 0.34,-0.76 0.81,-1.9 -0.13,-2.33 -0.93,-0.42 -1.89,0.25 -2.21,0.78 -0.7,1.18 -0.97,4.07 -1.07,5.5 -0.04,0.49 -0.11,1.07 -0.08,1.56 0.03,0.57 -0.07,1.07 -0.06,1.6z"/>
  <path class="fil2" d="M7.87 12.72c0.28,-0.26 0.98,-0.43 1.41,-1.59 0.16,0.07 0.77,0.42 0.86,0.54 -0.15,0.49 -0.54,0.93 -0.88,1.17 -0.18,0.13 -0.44,0.34 -0.71,0.26 -0.26,-0.07 -0.53,-0.22 -0.68,-0.38zm0.2 -2.26c-0.9,0.14 -1.79,1.61 -0.09,2.79 0.75,0.52 2.4,1.28 3.55,1.18 0.71,-0.06 1.23,-0.49 0.98,-1.29 -0.39,-1.29 -3.22,-2.87 -4.44,-2.68z"/>
  <path class="fil2" d="M3.84 10.82c0.02,-0.66 0.2,-0.78 0.88,-0.75 0.64,0.03 0.83,0.19 0.83,0.83 -0.26,-0.04 -0.46,-0.14 -0.79,-0.16 -0.39,-0.03 -0.58,0.05 -0.92,0.08zm1.44 -4.34c-0.89,0.25 -1.38,1.74 -1.6,2.85 -0.24,1.2 -0.46,3.03 1.08,3 0.43,-0.01 0.93,-0.32 1.03,-0.61 0.04,-0.11 -0.02,-0.3 -0.03,-0.45 -0.08,-0.82 0.11,-2.11 0.37,-2.91 0.07,-0.25 0.29,-0.63 0.27,-0.85 -0.07,-0.58 -0.49,-1.22 -1.12,-1.03z"/>
  <path class="fil2" d="M6.66 12.33c-0.02,-0.22 -0.08,-0.37 -0.05,-0.62 0.03,-0.31 0.07,-0.21 -0.03,-0.35 -0.09,-0.13 -0.06,0.08 -0.07,-0.15 0,-0.13 0.1,-0.46 0.17,-0.53 0.11,-0.12 0.32,-0.08 0.48,-0.19 0.28,-0.22 0.39,-0.39 0.9,-0.45 0.47,-0.05 0.74,0.06 1.16,0.14 0.17,-0.83 0.11,-2.07 -0.22,-2.79 -0.65,-1.45 -2.33,-0.67 -2.76,2.3 -0.13,0.93 -0.23,2.17 0.42,2.64z"/>
  <path class="fil3" d="M8.07 10.46c1.22,-0.19 4.05,1.39 4.44,2.68 0.25,0.8 -0.27,1.23 -0.98,1.29 -1.15,0.1 -2.8,-0.66 -3.55,-1.18 -1.7,-1.18 -0.81,-2.65 0.09,-2.79zm-2.85 7.22c1.1,0.26 2.3,0.34 3.64,0.13 -0.52,-3.28 -0.37,-2.13 0.71,-2.64 0.23,-0.11 0.53,-0.31 0.65,-0.47 -0.57,-0.29 -1.5,-0.37 -2.67,-1.27 -0.19,-0.14 -0.27,-0.23 -0.43,-0.38 -0.28,-0.27 -0.59,-0.14 -0.97,-0.62 -0.18,0.18 -0.21,0.62 -0.2,0.92 0.02,0.43 0.15,0.55 0.24,0.87 -0.48,-0.41 -0.52,-0.99 -0.44,-1.78 -0.37,0.15 -0.48,0.29 -0.99,0.3 -0.35,0 -0.72,-0.1 -0.97,-0.27 -1.09,-0.72 -0.64,-2.86 -0.34,-3.97 0.14,-0.49 0.24,-0.43 0.07,-0.94 -0.27,-0.85 -0.56,-2.16 -0.68,-3.03 -0.05,-0.37 -0.1,-0.74 -0.11,-1.12 -0.02,-0.42 0.05,-0.84 0.01,-1.26 -0.08,-0.79 -0.64,-1.23 -1.36,-0.73 -0.6,0.4 -0.69,0.84 -0.62,1.78 0.11,1.45 0.45,2.75 0.92,4 0.1,0.26 0.72,1.7 0.72,1.77 0.01,0.15 -0.25,1.17 -0.24,2.23 0.01,1.63 0.52,2.79 1.49,3.43 0.24,0.16 0.54,0.3 0.83,0.39 0.68,0.22 0.32,0.15 0.59,1.9 0.04,0.24 0.1,0.51 0.15,0.76zm3.78 0.43c-1.19,0.22 -2.63,0.16 -3.86,-0.15 -0.11,-0.02 -0.22,-0.05 -0.29,-0.1 -0.18,-0.27 -0.32,-1.96 -0.34,-2.41 -1,-0.22 -1.71,-0.87 -2.11,-1.55 -0.49,-0.8 -0.68,-1.92 -0.65,-3.03 0.02,-0.53 0.09,-1.14 0.19,-1.64 0.09,-0.39 0.04,-0.29 -0.12,-0.64 -0.49,-1.11 -0.91,-2.19 -1.18,-3.42 -0.18,-0.84 -0.47,-2.46 -0.19,-3.24 0.42,-1.15 2.71,-2.04 2.68,0.64 0,0.61 0.01,1.15 0.09,1.75 0.06,0.53 0.46,2.75 0.69,3.01 0.77,-1.63 2.33,-1.75 2.79,-0.22 0.2,-0.15 1.01,-1.4 2.19,-0.54 0.19,0.15 0.43,0.58 0.48,0.61 0.19,-1.9 0.41,-5.27 1.56,-6.24 0.73,-0.62 2.12,-0.9 2.8,-0.05 0.68,0.87 -0.06,2.09 -0.37,2.95 -0.67,1.85 -0.97,4.47 -1.22,6.57 -0.04,0.28 -0.08,0.57 -0.11,0.85 -0.07,0.55 -0.12,0.38 0.17,0.68 0.25,0.25 0.64,0.74 0.74,1.24 0.13,0.61 -0.16,1.12 -0.49,1.37 -0.46,0.33 -1.08,0.29 -1.71,0.26 -0.16,0.1 -0.21,0.2 -0.36,0.33 -0.64,0.53 -1.21,0.55 -1.38,0.66 0.03,0.78 0.22,1.49 0.29,2.23 -0.11,0.06 -0.18,0.08 -0.29,0.08zm-2.34 -5.78c-0.65,-0.47 -0.55,-1.71 -0.42,-2.64 0.43,-2.97 2.11,-3.75 2.76,-2.3 0.33,0.72 0.39,1.96 0.22,2.79 -0.42,-0.08 -0.69,-0.19 -1.16,-0.14 -0.51,0.06 -0.62,0.23 -0.9,0.45 -0.16,0.11 -0.37,0.07 -0.48,0.19 -0.07,0.07 -0.17,0.4 -0.17,0.53 0.01,0.23 -0.02,0.02 0.07,0.15 0.1,0.14 0.06,0.04 0.03,0.35 -0.03,0.25 0.03,0.4 0.05,0.62zm-1.38 -5.85c0.63,-0.19 1.05,0.45 1.12,1.03 0.02,0.22 -0.2,0.6 -0.27,0.85 -0.26,0.8 -0.45,2.09 -0.37,2.91 0.01,0.15 0.07,0.34 0.03,0.45 -0.1,0.29 -0.6,0.6 -1.03,0.61 -1.54,0.03 -1.32,-1.8 -1.08,-3 0.22,-1.11 0.71,-2.6 1.6,-2.85zm4.36 3.84c-0.01,-0.53 0.09,-1.03 0.06,-1.6 -0.03,-0.49 0.04,-1.07 0.08,-1.56 0.1,-1.43 0.37,-4.32 1.07,-5.5 0.32,-0.53 1.28,-1.2 2.21,-0.78 0.94,0.43 0.47,1.57 0.13,2.33 -0.95,2.14 -1.3,5.81 -1.59,8.19 -0.08,-0.02 -0.75,-0.47 -0.94,-0.58 -0.27,-0.15 -0.78,-0.34 -1.02,-0.5z"/>
  <path class="fil4" d="M6.83 6.4c-0.15,-0.1 -0.16,-0.16 -0.28,-0.27 -0.59,-0.56 -1.28,-0.6 -1.96,-0.19 -0.27,0.16 -0.36,0.35 -0.59,0.5l-0.33 -1.6c-0.09,-0.62 -0.17,-1.09 -0.17,-1.81 0,-0.86 0.03,-1.77 -0.63,-2.28 -1.14,-0.86 -2.87,0.28 -2.87,1.65 0,1.94 0.26,3.01 0.83,4.73 0.18,0.55 0.32,0.83 0.53,1.32 0.29,0.69 0.27,0.39 0.1,1.51 -0.14,0.88 -0.07,2.2 0.15,3.01 0.35,1.28 1.12,2.18 2.36,2.69 0.2,0.07 0.18,0.06 0.22,0.29 0.05,0.36 0.13,1.88 0.37,2.16 0.19,0.21 1.2,0.36 1.59,0.43 0.33,0.05 0.62,0.01 0.96,0.04 0.41,0.05 0.53,-0.01 0.94,0 0.35,0 1.6,-0.06 1.6,-0.51 0,-0.32 -0.25,-1.33 -0.25,-2.02 0.93,-0.22 1.29,-0.82 1.55,-0.84 0.28,-0.03 0.6,0.01 0.82,-0.03 1.91,-0.38 1.9,-2.18 0.94,-3.21 -0.4,-0.43 -0.39,-0.24 -0.23,-1.35l0.61 -4.24c0.11,-0.54 0.21,-1.07 0.36,-1.57 0.28,-0.96 0.45,-1.31 0.74,-2.12 0.05,-0.13 0.1,-0.22 0.12,-0.34 0.04,-0.17 0.04,-0.27 0.07,-0.45 0.2,-1.65 -1.74,-2.34 -3.17,-1.61 -1.42,0.72 -1.76,2.92 -1.95,4.41l-0.17 1.44c-0.05,0.16 -0.04,0.08 -0.18,0 -0.49,-0.27 -1.13,-0.3 -1.59,-0.05 -0.19,0.1 -0.32,0.22 -0.49,0.31zm1.24 4.06c1.22,-0.19 4.05,1.39 4.44,2.68 0.25,0.8 -0.27,1.23 -0.98,1.29 -1.15,0.1 -2.8,-0.66 -3.55,-1.18 -1.7,-1.18 -0.81,-2.65 0.09,-2.79zm-2.85 7.22c1.1,0.26 2.3,0.34 3.64,0.13 -0.52,-3.28 -0.37,-2.13 0.71,-2.64 0.23,-0.11 0.53,-0.31 0.65,-0.47 -0.57,-0.29 -1.5,-0.37 -2.67,-1.27 -0.19,-0.14 -0.27,-0.23 -0.43,-0.38 -0.28,-0.27 -0.59,-0.14 -0.97,-0.62 -0.18,0.18 -0.21,0.62 -0.2,0.92 0.02,0.43 0.15,0.55 0.24,0.87 -0.48,-0.41 -0.52,-0.99 -0.44,-1.78 -0.37,0.15 -0.48,0.29 -0.99,0.3 -0.35,0 -0.72,-0.1 -0.97,-0.27 -1.09,-0.72 -0.64,-2.86 -0.34,-3.97 0.14,-0.49 0.24,-0.43 0.07,-0.94 -0.27,-0.85 -0.56,-2.16 -0.68,-3.03 -0.05,-0.37 -0.1,-0.74 -0.11,-1.12 -0.02,-0.42 0.05,-0.84 0.01,-1.26 -0.08,-0.79 -0.64,-1.23 -1.36,-0.73 -0.6,0.4 -0.69,0.84 -0.62,1.78 0.11,1.45 0.45,2.75 0.92,4 0.1,0.26 0.72,1.7 0.72,1.77 0.01,0.15 -0.25,1.17 -0.24,2.23 0.01,1.63 0.52,2.79 1.49,3.43 0.24,0.16 0.54,0.3 0.83,0.39 0.68,0.22 0.32,0.15 0.59,1.9 0.04,0.24 0.1,0.51 0.15,0.76zm3.78 0.43c-1.19,0.22 -2.63,0.16 -3.86,-0.15 -0.11,-0.02 -0.22,-0.05 -0.29,-0.1 -0.18,-0.27 -0.32,-1.96 -0.34,-2.41 -1,-0.22 -1.71,-0.87 -2.11,-1.55 -0.49,-0.8 -0.68,-1.92 -0.65,-3.03 0.02,-0.53 0.09,-1.14 0.19,-1.64 0.09,-0.39 0.04,-0.29 -0.12,-0.64 -0.49,-1.11 -0.91,-2.19 -1.18,-3.42 -0.18,-0.84 -0.47,-2.46 -0.19,-3.24 0.42,-1.15 2.71,-2.04 2.68,0.64 0,0.61 0.01,1.15 0.09,1.75 0.06,0.53 0.46,2.75 0.69,3.01 0.77,-1.63 2.33,-1.75 2.79,-0.22 0.2,-0.15 1.01,-1.4 2.19,-0.54 0.19,0.15 0.43,0.58 0.48,0.61 0.19,-1.9 0.41,-5.27 1.56,-6.24 0.73,-0.62 2.12,-0.9 2.8,-0.05 0.68,0.87 -0.06,2.09 -0.37,2.95 -0.67,1.85 -0.97,4.47 -1.22,6.57 -0.04,0.28 -0.08,0.57 -0.11,0.85 -0.07,0.55 -0.12,0.38 0.17,0.68 0.25,0.25 0.64,0.74 0.74,1.24 0.13,0.61 -0.16,1.12 -0.49,1.37 -0.46,0.33 -1.08,0.29 -1.71,0.26 -0.16,0.1 -0.21,0.2 -0.36,0.33 -0.64,0.53 -1.21,0.55 -1.38,0.66 0.03,0.78 0.22,1.49 0.29,2.23 -0.11,0.06 -0.18,0.08 -0.29,0.08zm-2.34 -5.78c-0.65,-0.47 -0.55,-1.71 -0.42,-2.64 0.43,-2.97 2.11,-3.75 2.76,-2.3 0.33,0.72 0.39,1.96 0.22,2.79 -0.42,-0.08 -0.69,-0.19 -1.16,-0.14 -0.51,0.06 -0.62,0.23 -0.9,0.45 -0.16,0.11 -0.37,0.07 -0.48,0.19 -0.07,0.07 -0.17,0.4 -0.17,0.53 0.01,0.23 -0.02,0.02 0.07,0.15 0.1,0.14 0.06,0.04 0.03,0.35 -0.03,0.25 0.03,0.4 0.05,0.62zm-1.38 -5.85c0.63,-0.19 1.05,0.45 1.12,1.03 0.02,0.22 -0.2,0.6 -0.27,0.85 -0.26,0.8 -0.45,2.09 -0.37,2.91 0.01,0.15 0.07,0.34 0.03,0.45 -0.1,0.29 -0.6,0.6 -1.03,0.61 -1.54,0.03 -1.32,-1.8 -1.08,-3 0.22,-1.11 0.71,-2.6 1.6,-2.85zm4.36 3.84c-0.01,-0.53 0.09,-1.03 0.06,-1.6 -0.03,-0.49 0.04,-1.07 0.08,-1.56 0.1,-1.43 0.37,-4.32 1.07,-5.5 0.32,-0.53 1.28,-1.2 2.21,-0.78 0.94,0.43 0.47,1.57 0.13,2.33 -0.95,2.14 -1.3,5.81 -1.59,8.19 -0.08,-0.02 -0.75,-0.47 -0.94,-0.58 -0.27,-0.15 -0.78,-0.34 -1.02,-0.5z"/>
  <path class="fil3" d="M7.87 12.72c0.15,0.16 0.42,0.31 0.68,0.38 0.27,0.08 0.53,-0.13 0.71,-0.26 0.34,-0.24 0.73,-0.68 0.88,-1.17 -0.09,-0.12 -0.7,-0.47 -0.86,-0.54 -0.43,1.16 -1.13,1.33 -1.41,1.59z"/>
  <path class="fil3" d="M3.84 10.82c0.34,-0.03 0.53,-0.11 0.92,-0.08 0.33,0.02 0.53,0.12 0.79,0.16 0,-0.64 -0.19,-0.8 -0.83,-0.83 -0.68,-0.03 -0.86,0.09 -0.88,0.75z"/>
 </g>
</svg>
