<?xml version="1.0" encoding="UTF-8"?>
<!DOCTYPE svg PUBLIC "-//W3C//DTD SVG 1.1//EN" "http://www.w3.org/Graphics/SVG/1.1/DTD/svg11.dtd">
<!-- Creator: CorelDRAW 2019 (64-Bit) -->
<svg xmlns="http://www.w3.org/2000/svg" xml:space="preserve" width="263px" height="339px" version="1.1" style="shape-rendering:geometricPrecision; text-rendering:geometricPrecision; image-rendering:optimizeQuality; fill-rule:evenodd; clip-rule:evenodd"
viewBox="0 0 12.5 16.16"
 xmlns:xlink="http://www.w3.org/1999/xlink">
 <defs>
  <style type="text/css">
   <![CDATA[
    .fil0 {fill:#373435}
    .fil1 {fill:#ED3237}
    .fil3 {fill:#91D8F7}
    .fil2 {fill:#0098DA}
   ]]>
  </style>
 </defs>
 <g id="Capa_x0020_1">
  <metadata id="CorelCorpID_0Corel-Layer"/>
  <path class="fil0" d="M5.93 5.56c-0.13,-0.09 -0.13,-0.14 -0.24,-0.24 -0.51,-0.48 -1.11,-0.52 -1.7,-0.16 -0.24,0.14 -0.32,0.31 -0.51,0.44l-0.29 -1.39c-0.08,-0.54 -0.15,-0.95 -0.15,-1.58 0,-0.74 0.03,-1.53 -0.55,-1.97 -0.99,-0.76 -2.49,0.23 -2.49,1.42 0,1.69 0.23,2.62 0.72,4.11 0.16,0.48 0.28,0.72 0.46,1.15 0.26,0.6 0.23,0.34 0.08,1.32 -0.11,0.76 -0.05,1.9 0.14,2.6 0.3,1.12 0.97,1.91 2.05,2.34 0.17,0.07 0.16,0.06 0.19,0.26 0.05,0.31 0.11,1.63 0.32,1.87 0.16,0.19 1.05,0.31 1.38,0.37 0.29,0.05 0.54,0.01 0.84,0.05 0.35,0.03 0.46,-0.01 0.81,-0.01 0.31,0 1.39,-0.05 1.39,-0.44 0,-0.28 -0.22,-1.16 -0.22,-1.76 0.82,-0.19 1.13,-0.71 1.36,-0.73 0.23,-0.02 0.51,0.01 0.7,-0.02 1.67,-0.33 1.66,-1.9 0.83,-2.79 -0.35,-0.37 -0.35,-0.21 -0.21,-1.17l0.53 -3.68c0.1,-0.47 0.18,-0.94 0.31,-1.38 0.25,-0.83 0.4,-1.13 0.65,-1.83 0.04,-0.11 0.08,-0.19 0.11,-0.3 0.03,-0.15 0.03,-0.23 0.05,-0.39 0.18,-1.43 -1.51,-2.03 -2.75,-1.4 -1.23,0.63 -1.53,2.54 -1.7,3.84l-0.14 1.25c-0.04,0.13 -0.03,0.07 -0.16,-0.01 -0.42,-0.23 -0.98,-0.25 -1.38,-0.04 -0.17,0.09 -0.28,0.19 -0.43,0.27z"/>
  <path class="fil1" d="M4.57 15.62c-0.13,-0.02 -0.27,-0.04 -0.36,-0.11 -0.15,-0.23 -0.27,-1.7 -0.29,-2.09 -0.87,-0.19 -1.49,-0.76 -1.84,-1.34 -0.42,-0.7 -0.59,-1.67 -0.56,-2.64 0.02,-0.46 0.08,-0.98 0.17,-1.42 0.07,-0.34 0.03,-0.25 -0.11,-0.56 -0.43,-0.96 -0.79,-1.9 -1.02,-2.97 -0.16,-0.72 -0.42,-2.13 -0.17,-2.82 0.37,-0.99 2.35,-1.77 2.33,0.56 0,0.54 0.01,1 0.08,1.53 0.05,0.45 0.4,2.38 0.6,2.6 0.67,-1.41 2.02,-1.51 2.42,-0.18 0.17,-0.13 0.88,-1.22 1.9,-0.47 0.17,0.12 0.38,0.5 0.42,0.52 0.16,-1.65 0.36,-4.57 1.35,-5.41 0.64,-0.54 1.85,-0.79 2.43,-0.05 0.6,0.76 -0.04,1.82 -0.31,2.56 -0.59,1.61 -0.84,3.89 -1.07,5.71 -0.03,0.25 -0.06,0.5 -0.09,0.74 -0.06,0.48 -0.11,0.33 0.15,0.59 0.21,0.22 0.55,0.64 0.65,1.08 0.11,0.53 -0.15,0.97 -0.44,1.19 -0.39,0.29 -0.93,0.25 -1.48,0.23 -0.14,0.08 -0.18,0.17 -0.31,0.28 -0.56,0.46 -1.05,0.48 -1.2,0.57 0.03,0.68 0.19,1.31 0.25,1.94 -0.12,0.07 -0.19,0.08 -0.34,0.07 -0.5,-3.17 -0.38,-2.09 0.59,-2.55 0.2,-0.09 0.45,-0.27 0.56,-0.41 -0.5,-0.25 -1.3,-0.32 -2.32,-1.1 -0.16,-0.12 -0.24,-0.2 -0.37,-0.33 -0.25,-0.23 -0.52,-0.13 -0.84,-0.54 -0.16,0.15 -0.19,0.54 -0.18,0.8 0.02,0.37 0.13,0.48 0.21,0.76 -0.42,-0.36 -0.46,-0.86 -0.39,-1.55 -0.32,0.13 -0.41,0.25 -0.85,0.26 -0.31,0 -0.63,-0.09 -0.85,-0.23 -0.94,-0.63 -0.56,-2.49 -0.29,-3.45 0.12,-0.43 0.21,-0.38 0.06,-0.83 -0.24,-0.73 -0.49,-1.86 -0.6,-2.63 -0.04,-0.31 -0.08,-0.64 -0.09,-0.97 -0.01,-0.37 0.05,-0.72 0.01,-1.09 -0.07,-0.69 -0.55,-1.07 -1.18,-0.64 -0.52,0.35 -0.6,0.73 -0.54,1.55 0.1,1.26 0.39,2.39 0.8,3.48 0.09,0.22 0.63,1.47 0.63,1.53 0,0.13 -0.22,1.02 -0.21,1.94 0.01,1.42 0.45,2.42 1.29,2.98 0.21,0.14 0.47,0.26 0.72,0.34 0.6,0.19 0.28,0.13 0.52,1.65 0.04,0.29 0.13,0.64 0.16,0.92z"/>
  <path class="fil2" d="M8.37 8.97c0.21,0.14 0.65,0.3 0.89,0.43 0.17,0.1 0.75,0.48 0.82,0.5 0.25,-2.07 0.55,-5.25 1.38,-7.12 0.29,-0.65 0.7,-1.64 -0.12,-2.01 -0.8,-0.37 -1.64,0.21 -1.91,0.67 -0.61,1.03 -0.85,3.54 -0.94,4.78 -0.03,0.43 -0.09,0.93 -0.07,1.35 0.03,0.5 -0.05,0.94 -0.05,1.4z"/>
  <path class="fil2" d="M6.84 11.05c0.24,-0.22 0.85,-0.37 1.22,-1.38 0.14,0.06 0.67,0.36 0.75,0.47 -0.13,0.42 -0.47,0.81 -0.76,1.02 -0.16,0.11 -0.39,0.29 -0.62,0.22 -0.23,-0.06 -0.46,-0.19 -0.59,-0.33zm0.17 -1.96c-0.78,0.12 -1.55,1.39 -0.08,2.42 0.65,0.46 2.08,1.11 3.09,1.03 0.62,-0.06 1.07,-0.43 0.85,-1.12 -0.34,-1.12 -2.79,-2.5 -3.86,-2.33z"/>
  <path class="fil2" d="M3.34 9.4c0.01,-0.58 0.17,-0.68 0.76,-0.65 0.56,0.03 0.72,0.17 0.72,0.72 -0.23,-0.03 -0.4,-0.12 -0.68,-0.14 -0.35,-0.03 -0.51,0.05 -0.8,0.07zm1.24 -3.77c-0.76,0.22 -1.19,1.51 -1.39,2.47 -0.2,1.05 -0.4,2.64 0.94,2.61 0.38,-0.01 0.81,-0.27 0.9,-0.53 0.03,-0.09 -0.02,-0.26 -0.03,-0.39 -0.06,-0.71 0.1,-1.83 0.32,-2.53 0.07,-0.21 0.26,-0.55 0.24,-0.73 -0.06,-0.51 -0.42,-1.06 -0.98,-0.9z"/>
  <path class="fil2" d="M5.78 10.71c-0.01,-0.19 -0.06,-0.32 -0.04,-0.54 0.03,-0.27 0.07,-0.18 -0.03,-0.3 -0.07,-0.11 -0.04,0.07 -0.05,-0.13 -0.01,-0.11 0.08,-0.4 0.14,-0.46 0.1,-0.1 0.29,-0.07 0.42,-0.17 0.24,-0.18 0.34,-0.34 0.78,-0.39 0.41,-0.04 0.65,0.06 1.01,0.12 0.15,-0.72 0.09,-1.79 -0.19,-2.42 -0.57,-1.26 -2.02,-0.59 -2.4,2 -0.11,0.8 -0.2,1.89 0.36,2.29z"/>
  <path class="fil0" d="M7.01 9.09c1.07,-0.17 3.52,1.21 3.86,2.33 0.22,0.69 -0.23,1.06 -0.85,1.12 -1.01,0.08 -2.44,-0.57 -3.09,-1.03 -1.47,-1.03 -0.7,-2.3 0.08,-2.42zm-2.48 6.27c0.96,0.23 2,0.29 3.16,0.12 -0.45,-2.86 -0.31,-1.86 0.63,-2.3 0.2,-0.09 0.45,-0.27 0.56,-0.41 -0.5,-0.25 -1.3,-0.32 -2.32,-1.1 -0.16,-0.12 -0.24,-0.2 -0.37,-0.33 -0.25,-0.23 -0.52,-0.13 -0.84,-0.54 -0.16,0.15 -0.19,0.54 -0.18,0.8 0.02,0.37 0.13,0.48 0.21,0.76 -0.42,-0.36 -0.46,-0.86 -0.39,-1.55 -0.32,0.13 -0.41,0.25 -0.85,0.26 -0.31,0 -0.63,-0.09 -0.85,-0.23 -0.94,-0.63 -0.56,-2.49 -0.29,-3.45 0.12,-0.43 0.21,-0.38 0.06,-0.83 -0.24,-0.73 -0.49,-1.86 -0.6,-2.63 -0.04,-0.31 -0.08,-0.64 -0.09,-0.97 -0.01,-0.37 0.05,-0.72 0.01,-1.09 -0.07,-0.69 -0.55,-1.07 -1.18,-0.64 -0.52,0.35 -0.6,0.73 -0.54,1.55 0.1,1.26 0.39,2.39 0.8,3.48 0.09,0.22 0.63,1.47 0.63,1.53 0,0.13 -0.22,1.02 -0.21,1.94 0.01,1.42 0.45,2.42 1.29,2.98 0.21,0.14 0.47,0.26 0.72,0.34 0.6,0.19 0.28,0.13 0.52,1.65 0.03,0.2 0.08,0.44 0.12,0.66zm3.29 0.37c-1.04,0.2 -2.28,0.15 -3.35,-0.13 -0.1,-0.01 -0.2,-0.04 -0.26,-0.09 -0.15,-0.23 -0.27,-1.7 -0.29,-2.09 -0.87,-0.19 -1.49,-0.76 -1.84,-1.34 -0.42,-0.7 -0.59,-1.67 -0.56,-2.64 0.02,-0.46 0.08,-0.98 0.17,-1.42 0.07,-0.34 0.03,-0.25 -0.11,-0.56 -0.43,-0.96 -0.79,-1.9 -1.02,-2.97 -0.16,-0.72 -0.42,-2.13 -0.17,-2.82 0.37,-0.99 2.35,-1.77 2.33,0.56 0,0.54 0.01,1 0.08,1.53 0.05,0.45 0.4,2.38 0.6,2.6 0.67,-1.41 2.02,-1.51 2.42,-0.18 0.17,-0.13 0.88,-1.22 1.9,-0.47 0.17,0.12 0.38,0.5 0.42,0.52 0.16,-1.65 0.36,-4.57 1.35,-5.41 0.64,-0.54 1.85,-0.79 2.43,-0.05 0.6,0.76 -0.04,1.82 -0.31,2.56 -0.59,1.61 -0.84,3.89 -1.07,5.71 -0.03,0.25 -0.06,0.5 -0.09,0.74 -0.06,0.48 -0.11,0.33 0.15,0.59 0.21,0.22 0.55,0.64 0.65,1.08 0.11,0.53 -0.15,0.97 -0.44,1.19 -0.39,0.29 -0.93,0.25 -1.48,0.23 -0.14,0.08 -0.18,0.17 -0.31,0.28 -0.56,0.46 -1.05,0.48 -1.2,0.57 0.03,0.68 0.19,1.31 0.25,1.94 -0.09,0.06 -0.16,0.07 -0.25,0.07zm-2.04 -5.02c-0.56,-0.4 -0.47,-1.49 -0.36,-2.29 0.38,-2.59 1.83,-3.26 2.4,-2 0.28,0.63 0.34,1.7 0.19,2.42 -0.36,-0.06 -0.6,-0.16 -1.01,-0.12 -0.44,0.05 -0.54,0.21 -0.78,0.39 -0.13,0.1 -0.32,0.07 -0.42,0.17 -0.06,0.06 -0.15,0.35 -0.14,0.46 0.01,0.2 -0.02,0.02 0.05,0.13 0.1,0.12 0.06,0.03 0.03,0.3 -0.02,0.22 0.03,0.35 0.04,0.54zm-1.2 -5.08c0.56,-0.16 0.92,0.39 0.98,0.9 0.02,0.18 -0.17,0.52 -0.24,0.73 -0.22,0.7 -0.38,1.82 -0.32,2.53 0.01,0.13 0.06,0.3 0.03,0.39 -0.09,0.26 -0.52,0.52 -0.9,0.53 -1.34,0.03 -1.14,-1.56 -0.94,-2.61 0.2,-0.96 0.63,-2.25 1.39,-2.47zm3.79 3.34c0,-0.46 0.08,-0.9 0.05,-1.4 -0.02,-0.42 0.04,-0.92 0.07,-1.35 0.09,-1.24 0.33,-3.75 0.94,-4.78 0.27,-0.46 1.11,-1.04 1.91,-0.67 0.82,0.37 0.41,1.36 0.12,2.01 -0.83,1.87 -1.13,5.05 -1.38,7.12 -0.07,-0.02 -0.65,-0.4 -0.82,-0.5 -0.24,-0.13 -0.68,-0.29 -0.89,-0.43z"/>
  <path class="fil3" d="M5.93 5.56c-0.13,-0.09 -0.13,-0.14 -0.24,-0.24 -0.51,-0.48 -1.11,-0.52 -1.7,-0.16 -0.24,0.14 -0.32,0.31 -0.51,0.44l-0.29 -1.39c-0.08,-0.54 -0.15,-0.95 -0.15,-1.58 0,-0.74 0.03,-1.53 -0.55,-1.97 -0.99,-0.76 -2.49,0.23 -2.49,1.42 0,1.69 0.23,2.62 0.72,4.11 0.16,0.48 0.28,0.72 0.46,1.15 0.26,0.6 0.23,0.34 0.08,1.32 -0.11,0.76 -0.05,1.9 0.14,2.6 0.3,1.12 0.97,1.91 2.05,2.34 0.17,0.07 0.16,0.06 0.19,0.26 0.05,0.31 0.11,1.63 0.32,1.87 0.16,0.19 1.05,0.31 1.38,0.37 0.29,0.05 0.54,0.01 0.84,0.05 0.35,0.03 0.46,-0.01 0.81,-0.01 0.31,0 1.39,-0.05 1.39,-0.44 0,-0.28 -0.22,-1.16 -0.22,-1.76 0.82,-0.19 1.13,-0.71 1.36,-0.73 0.23,-0.02 0.51,0.01 0.7,-0.02 1.67,-0.33 1.66,-1.9 0.83,-2.79 -0.35,-0.37 -0.35,-0.21 -0.21,-1.17l0.53 -3.68c0.1,-0.47 0.18,-0.94 0.31,-1.38 0.25,-0.83 0.4,-1.13 0.65,-1.83 0.04,-0.11 0.08,-0.19 0.11,-0.3 0.03,-0.15 0.03,-0.23 0.05,-0.39 0.18,-1.43 -1.51,-2.03 -2.75,-1.4 -1.23,0.63 -1.53,2.54 -1.7,3.84l-0.14 1.25c-0.04,0.13 -0.03,0.07 -0.16,-0.01 -0.42,-0.23 -0.98,-0.25 -1.38,-0.04 -0.17,0.09 -0.28,0.19 -0.43,0.27zm1.08 3.53c1.07,-0.17 3.52,1.21 3.86,2.33 0.22,0.69 -0.23,1.06 -0.85,1.12 -1.01,0.08 -2.44,-0.57 -3.09,-1.03 -1.47,-1.03 -0.7,-2.3 0.08,-2.42zm-2.48 6.27c0.96,0.23 2,0.29 3.16,0.12 -0.45,-2.86 -0.31,-1.86 0.63,-2.3 0.2,-0.09 0.45,-0.27 0.56,-0.41 -0.5,-0.25 -1.3,-0.32 -2.32,-1.1 -0.16,-0.12 -0.24,-0.2 -0.37,-0.33 -0.25,-0.23 -0.52,-0.13 -0.84,-0.54 -0.16,0.15 -0.19,0.54 -0.18,0.8 0.02,0.37 0.13,0.48 0.21,0.76 -0.42,-0.36 -0.46,-0.86 -0.39,-1.55 -0.32,0.13 -0.41,0.25 -0.85,0.26 -0.31,0 -0.63,-0.09 -0.85,-0.23 -0.94,-0.63 -0.56,-2.49 -0.29,-3.45 0.12,-0.43 0.21,-0.38 0.06,-0.83 -0.24,-0.73 -0.49,-1.86 -0.6,-2.63 -0.04,-0.31 -0.08,-0.64 -0.09,-0.97 -0.01,-0.37 0.05,-0.72 0.01,-1.09 -0.07,-0.69 -0.55,-1.07 -1.18,-0.64 -0.52,0.35 -0.6,0.73 -0.54,1.55 0.1,1.26 0.39,2.39 0.8,3.48 0.09,0.22 0.63,1.47 0.63,1.53 0,0.13 -0.22,1.02 -0.21,1.94 0.01,1.42 0.45,2.42 1.29,2.98 0.21,0.14 0.47,0.26 0.72,0.34 0.6,0.19 0.28,0.13 0.52,1.65 0.03,0.2 0.08,0.44 0.12,0.66zm3.29 0.37c-1.04,0.2 -2.28,0.15 -3.35,-0.13 -0.1,-0.01 -0.2,-0.04 -0.26,-0.09 -0.15,-0.23 -0.27,-1.7 -0.29,-2.09 -0.87,-0.19 -1.49,-0.76 -1.84,-1.34 -0.42,-0.7 -0.59,-1.67 -0.56,-2.64 0.02,-0.46 0.08,-0.98 0.17,-1.42 0.07,-0.34 0.03,-0.25 -0.11,-0.56 -0.43,-0.96 -0.79,-1.9 -1.02,-2.97 -0.16,-0.72 -0.42,-2.13 -0.17,-2.82 0.37,-0.99 2.35,-1.77 2.33,0.56 0,0.54 0.01,1 0.08,1.53 0.05,0.45 0.4,2.38 0.6,2.6 0.67,-1.41 2.02,-1.51 2.42,-0.18 0.17,-0.13 0.88,-1.22 1.9,-0.47 0.17,0.12 0.38,0.5 0.42,0.52 0.16,-1.65 0.36,-4.57 1.35,-5.41 0.64,-0.54 1.85,-0.79 2.43,-0.05 0.6,0.76 -0.04,1.82 -0.31,2.56 -0.59,1.61 -0.84,3.89 -1.07,5.71 -0.03,0.25 -0.06,0.5 -0.09,0.74 -0.06,0.48 -0.11,0.33 0.15,0.59 0.21,0.22 0.55,0.64 0.65,1.08 0.11,0.53 -0.15,0.97 -0.44,1.19 -0.39,0.29 -0.93,0.25 -1.48,0.23 -0.14,0.08 -0.18,0.17 -0.31,0.28 -0.56,0.46 -1.05,0.48 -1.2,0.57 0.03,0.68 0.19,1.31 0.25,1.94 -0.09,0.06 -0.16,0.07 -0.25,0.07zm-2.04 -5.02c-0.56,-0.4 -0.47,-1.49 -0.36,-2.29 0.38,-2.59 1.83,-3.26 2.4,-2 0.28,0.63 0.34,1.7 0.19,2.42 -0.36,-0.06 -0.6,-0.16 -1.01,-0.12 -0.44,0.05 -0.54,0.21 -0.78,0.39 -0.13,0.1 -0.32,0.07 -0.42,0.17 -0.06,0.06 -0.15,0.35 -0.14,0.46 0.01,0.2 -0.02,0.02 0.05,0.13 0.1,0.12 0.06,0.03 0.03,0.3 -0.02,0.22 0.03,0.35 0.04,0.54zm-1.2 -5.08c0.56,-0.16 0.92,0.39 0.98,0.9 0.02,0.18 -0.17,0.52 -0.24,0.73 -0.22,0.7 -0.38,1.82 -0.32,2.53 0.01,0.13 0.06,0.3 0.03,0.39 -0.09,0.26 -0.52,0.52 -0.9,0.53 -1.34,0.03 -1.14,-1.56 -0.94,-2.61 0.2,-0.96 0.63,-2.25 1.39,-2.47zm3.79 3.34c0,-0.46 0.08,-0.9 0.05,-1.4 -0.02,-0.42 0.04,-0.92 0.07,-1.35 0.09,-1.24 0.33,-3.75 0.94,-4.78 0.27,-0.46 1.11,-1.04 1.91,-0.67 0.82,0.37 0.41,1.36 0.12,2.01 -0.83,1.87 -1.13,5.05 -1.38,7.12 -0.07,-0.02 -0.65,-0.4 -0.82,-0.5 -0.24,-0.13 -0.68,-0.29 -0.89,-0.43z"/>
  <path class="fil0" d="M6.84 11.05c0.13,0.14 0.36,0.27 0.59,0.33 0.23,0.07 0.46,-0.11 0.62,-0.22 0.29,-0.21 0.63,-0.6 0.76,-1.02 -0.08,-0.11 -0.61,-0.41 -0.75,-0.47 -0.37,1.01 -0.98,1.16 -1.22,1.38z"/>
  <path class="fil0" d="M3.34 9.4c0.29,-0.02 0.45,-0.1 0.8,-0.07 0.28,0.02 0.45,0.11 0.68,0.14 0,-0.55 -0.16,-0.69 -0.72,-0.72 -0.59,-0.03 -0.75,0.07 -0.76,0.65z"/>
 </g>
</svg>
