<?xml version="1.0" encoding="UTF-8"?>
<!DOCTYPE svg PUBLIC "-//W3C//DTD SVG 1.1//EN" "http://www.w3.org/Graphics/SVG/1.1/DTD/svg11.dtd">
<!-- Creator: CorelDRAW 2019 (64-Bit) -->
<svg xmlns="http://www.w3.org/2000/svg" xml:space="preserve" width="16px" height="16px" version="1.1" style="shape-rendering:geometricPrecision; text-rendering:geometricPrecision; image-rendering:optimizeQuality; fill-rule:evenodd; clip-rule:evenodd"
viewBox="0 0 3.56 3.56"
 xmlns:xlink="http://www.w3.org/1999/xlink">
 <defs>
  <style type="text/css">
   <![CDATA[
    .fil0 {fill:#FEFEFE}
   ]]>
  </style>
 </defs>
 <g id="Capa_x0020_1">
  <metadata id="CorelCorpID_0Corel-Layer"/>
  <g id="form_new_regular_icon_205269.svg">
   <path class="fil0" d="M0.49 0c-0.27,0 -0.49,0.22 -0.49,0.49l0 2.23c0,0.27 0.22,0.49 0.49,0.49l1.12 0c-0.06,-0.09 -0.1,-0.18 -0.13,-0.27l-0.99 0c-0.12,0 -0.22,-0.1 -0.22,-0.22l0 -2.23c0,-0.12 0.1,-0.22 0.22,-0.22l2.23 0c0.12,0 0.22,0.1 0.22,0.22l0 0.99c0.09,0.03 0.18,0.07 0.27,0.13l0 -1.12c0,-0.27 -0.22,-0.49 -0.49,-0.49l-2.23 0z"/>
   <path class="fil0" d="M2.66 1.43c0.01,-0.02 0.01,-0.03 0.01,-0.05 0,-0.07 -0.06,-0.13 -0.13,-0.13l-0.89 0c-0.08,0 -0.14,0.06 -0.14,0.13 0,0.07 0.06,0.13 0.14,0.13l0.49 0c0.13,-0.05 0.29,-0.08 0.44,-0.08 0.03,0 0.06,0 0.08,0z"/>
   <path class="fil0" d="M0.94 0.98c-0.23,0 -0.41,0.18 -0.41,0.4 0,0.22 0.18,0.4 0.41,0.4 0.22,0 0.4,-0.18 0.4,-0.4 0,-0.22 -0.18,-0.4 -0.4,-0.4zm-0.14 0.4c0,-0.07 0.06,-0.13 0.14,-0.13 0.07,0 0.13,0.06 0.13,0.13 0,0.07 -0.06,0.13 -0.13,0.13 -0.08,0 -0.14,-0.06 -0.14,-0.13z"/>
   <path class="fil0" d="M0.53 2.36c0,-0.22 0.18,-0.4 0.41,-0.4 0.22,0 0.4,0.18 0.4,0.4 0,0.22 -0.18,0.4 -0.4,0.4 -0.23,0 -0.41,-0.18 -0.41,-0.4zm0.41 -0.13c-0.08,0 -0.14,0.06 -0.14,0.13 0,0.07 0.06,0.13 0.14,0.13 0.07,0 0.13,-0.06 0.13,-0.13 0,-0.07 -0.06,-0.13 -0.13,-0.13z"/>
   <path class="fil0" d="M2.54 0.8l-1.87 0c-0.07,0 -0.13,-0.06 -0.13,-0.13 0,-0.08 0.06,-0.14 0.13,-0.14l1.87 0c0.07,0 0.13,0.06 0.13,0.14 0,0.07 -0.06,0.13 -0.13,0.13z"/>
   <path class="fil0" d="M3.56 2.58c0,-0.54 -0.44,-0.98 -0.98,-0.98 -0.54,0 -0.98,0.44 -0.98,0.98 0,0.54 0.44,0.98 0.98,0.98 0.54,0 0.98,-0.44 0.98,-0.98zm-0.89 0.54c0,0.05 -0.04,0.09 -0.09,0.09 -0.05,0 -0.09,-0.04 -0.09,-0.09l0 -0.45 -0.44 0c-0.05,0 -0.09,-0.04 -0.09,-0.09 0,-0.05 0.04,-0.09 0.09,-0.09l0.44 0 0 -0.44c0,-0.05 0.04,-0.09 0.09,-0.09 0.05,0 0.09,0.04 0.09,0.09l0 0.44 0.45 0c0.05,0 0.09,0.04 0.09,0.09 0,0.05 -0.04,0.09 -0.09,0.09l-0.45 0 0 0.45z"/>
  </g>
 </g>
</svg>
