<?xml version="1.0" encoding="UTF-8"?>
<!DOCTYPE svg PUBLIC "-//W3C//DTD SVG 1.1//EN" "http://www.w3.org/Graphics/SVG/1.1/DTD/svg11.dtd">
<!-- Creator: CorelDRAW 2019 (64-Bit) -->
<svg xmlns="http://www.w3.org/2000/svg" xml:space="preserve" width="16px" height="13px" version="1.1" style="shape-rendering:geometricPrecision; text-rendering:geometricPrecision; image-rendering:optimizeQuality; fill-rule:evenodd; clip-rule:evenodd"
viewBox="0 0 10.94 8.7"
 xmlns:xlink="http://www.w3.org/1999/xlink">
 <defs>
  <style type="text/css">
   <![CDATA[
    .fil0 {fill:#FEFEFE}
   ]]>
  </style>
 </defs>
 <g id="Capa_x0020_1">
  <metadata id="CorelCorpID_0Corel-Layer"/>
  <g id="home_icon-icons.com_73532.svg">
   <g>
    <g>
     <path class="fil0" d="M5.47 1.76l-3.9 3.21c0,0.01 0,0.01 -0.01,0.02 0,0.01 0,0.02 0,0.02l0 3.26c0,0.12 0.04,0.22 0.13,0.3 0.09,0.09 0.19,0.13 0.31,0.13l2.6 0 0 -2.6 1.74 0 0 2.6 2.6 0c0.12,0 0.22,-0.04 0.31,-0.13 0.08,-0.08 0.13,-0.18 0.13,-0.3l0 -3.26c0,-0.02 -0.01,-0.03 -0.01,-0.04l-3.9 -3.21z"/>
     <path class="fil0" d="M10.86 4.24l-1.48 -1.23 0 -2.77c0,-0.07 -0.03,-0.12 -0.07,-0.16 -0.04,-0.04 -0.09,-0.06 -0.15,-0.06l-1.3 0c-0.07,0 -0.12,0.02 -0.16,0.06 -0.04,0.04 -0.06,0.09 -0.06,0.16l0 1.32 -1.66 -1.38c-0.14,-0.12 -0.31,-0.18 -0.51,-0.18 -0.2,0 -0.37,0.06 -0.52,0.18l-4.87 4.06c-0.05,0.04 -0.07,0.08 -0.08,0.15 0,0.06 0.01,0.11 0.05,0.15l0.42 0.51c0.04,0.04 0.08,0.06 0.14,0.07 0.06,0.01 0.11,-0.01 0.16,-0.05l4.7 -3.91 4.69 3.91c0.04,0.04 0.09,0.05 0.14,0.05l0.02 0c0.06,-0.01 0.11,-0.03 0.15,-0.07l0.42 -0.51c0.03,-0.04 0.05,-0.09 0.05,-0.15 -0.01,-0.07 -0.03,-0.11 -0.08,-0.15z"/>
    </g>
   </g>
   <g>
   </g>
   <g>
   </g>
   <g>
   </g>
   <g>
   </g>
   <g>
   </g>
   <g>
   </g>
   <g>
   </g>
   <g>
   </g>
   <g>
   </g>
   <g>
   </g>
   <g>
   </g>
   <g>
   </g>
   <g>
   </g>
   <g>
   </g>
   <g>
   </g>
  </g>
 </g>
</svg>
