<?xml version="1.0" encoding="UTF-8"?>
<!DOCTYPE svg PUBLIC "-//W3C//DTD SVG 1.1//EN" "http://www.w3.org/Graphics/SVG/1.1/DTD/svg11.dtd">
<!-- Creator: CorelDRAW 2019 (64-Bit) -->
<svg xmlns="http://www.w3.org/2000/svg" xml:space="preserve" width="367px" height="158px" version="1.1" style="shape-rendering:geometricPrecision; text-rendering:geometricPrecision; image-rendering:optimizeQuality; fill-rule:evenodd; clip-rule:evenodd"
viewBox="0 0 37 15.94"
 xmlns:xlink="http://www.w3.org/1999/xlink">
 <defs>
  <style type="text/css">
   <![CDATA[
    .fil0 {fill:#848688}
    .fil1 {fill:#848688;fill-rule:nonzero}
   ]]>
  </style>
 </defs>
 <g id="Capa_x0020_1">
  <metadata id="CorelCorpID_0Corel-Layer"/>
  <g id="_2270723752928">
   <path class="fil0" d="M18.73 6.57l-0.07 -0.07 0.07 0.07zm18.27 2.26l-0.75 -0.04 -0.97 -1.18 0.1 1.44 -0.58 -0.54 -0.07 0.34 -0.54 -6.15 -0.62 6.13 -0.21 -0.96 -0.56 0.91 -0.45 -1.21 -0.55 1.53 -0.8 -0.83 -0.3 0.56 -1.48 -0.79 -1.08 1 -0.64 -1.76 -0.84 1.48 -0.25 -1.06 -0.42 1.44 -0.44 -5.55 -1.08 5.55 -0.33 -0.62 -0.34 0.39 -0.26 -1.3 -0.88 1.2 -1.92 0.23 0.04 -0.09c0.1,-0.21 0.14,-0.45 0.22,-0.7 0.18,-0.55 0.35,-0.89 0.38,-1.48 0.06,-1.3 1.09,-5.06 1.05,-5.49 -0.05,-0.59 -1.25,-1.49 -1.78,0.66 -0.13,0.52 -0.28,1 -0.4,1.52l-0.04 -0.09c-0.08,-0.2 -0.21,-0.41 -0.43,-0.5 -0.37,-0.16 -0.6,-0.01 -0.92,0.06 -0.09,-0.35 -0.58,-0.58 -0.98,-0.39 -0.42,0.19 -0.47,0.5 -0.47,1.12 -0.01,-0.01 -0.03,-0.05 -0.03,-0.04l-0.46 -1.59c-0.13,-0.51 -0.32,-1.25 -0.55,-1.64 -0.41,-0.72 -1.68,-0.48 -1.24,0.98l0.71 2.53c0.15,0.5 0.32,1.38 0.03,1.86 -0.48,0.81 -0.58,0.45 -0.23,1.51 0.18,0.52 0.37,1.1 0.5,1.63l-1.8 -0.23 -0.87 -1.21 -0.26 1.3 -0.35 -0.39 -0.33 0.62 -1.05 -5.55 -0.47 5.54 -0.41 -1.44 -0.26 1.06 -0.83 -1.49 -0.65 1.76 -1.08 -1.01 -1.47 0.78 -0.3 -0.56 -0.8 0.83 -0.55 -1.53 -0.45 1.21 -0.56 -0.91 -0.22 0.95 -0.58 -6.13 -0.57 6.14 -0.08 -0.33 -0.57 0.54 0.1 -1.44 -0.97 1.16 -0.76 0.05 0.02 0.3 0.88 -0.06 0.47 -0.55 -0.1 1.27 0.75 -0.7 0.38 1.66 0.45 -4.88 0.46 4.86 0.47 -2.06 0.49 0.8 0.38 -1.02 0.44 1.22 0.85 -0.88 0.25 0.47 1.55 -0.83 1.25 1.17 0.57 -1.57 0.89 1.58 0.17 -0.71 0.56 1.92 0.42 -4.97 0.8 4.23 0.52 -0.98 0.46 0.52 0.25 -1.22 0.55 0.76 2.23 0.28 0.07 -0.07c0.01,-0.01 0,-0.02 -0.01,-0.03 0,-0.01 0,-0.02 0,-0.02 -0.05,-0.7 -0.38,-1.53 -0.6,-2.14 -0.25,-0.72 0.28,-0.92 0.81,-1.92 0.53,0 2.37,-0.31 2.08,0.61 -0.09,0.27 -0.29,0.37 -0.43,0.58 -0.33,-0.16 -1.11,-0.45 -1.39,-0.07 0.27,0.4 0.89,0.04 1.48,0.58 0.17,0.16 0.31,0.43 0.39,0.67 0.04,0.14 0.04,0.28 0.09,0.44 0.07,0.22 0.05,0.21 0.29,0.23 0.13,-0.59 -0.19,-1.12 -0.46,-1.52 0.41,0.1 0.71,0.25 1.03,-0.16 0.25,-0.31 0.29,-0.66 0.4,-1.12 0.1,-0.43 0.15,-0.77 0.25,-1.21l0.62 -2.35c0.29,-1.19 1.33,-1.14 0.98,0.18l-0.96 5.06c-0.05,0.47 -0.22,0.77 -0.34,1.18 -0.19,0.61 -0.21,1.09 -0.15,1.18 0,0.01 0,0.01 0,0.01 0,0 0,0 0,0l0.03 0.02 2.23 -0.27 0.56 -0.76 0.24 1.22 0.46 -0.51 0.52 0.99 0.82 -4.24 0.46 4.12 0.5 -1.06 0.17 0.71 0.89 -1.57 0.57 1.57 1.26 -1.16 1.54 0.83 0.26 -0.46 0.84 0.88 0.44 -1.22 0.38 1.03 0.5 -0.81 0.45 2.07 0.49 -4.86 0.43 4.88 0.38 -1.66 0.74 0.71 -0.08 -1.28 0.46 0.56 0.88 0.06 0.02 -0.3zm-18.34 -2.33l0 0zm-0.06 -1.72l-0.93 0c0,-0.63 -0.1,-1.98 0.46,-1.98 0.82,0 0.47,0.85 0.47,1.98zm0.66 1.59c-0.27,0 -0.27,-0.03 -0.46,-0.13 0.07,-0.29 0.3,-0.33 0.3,-0.73 0,-0.42 -0.26,-0.35 -0.23,-0.78l0.05 -1.01c0.04,-0.86 1.07,-0.76 0.99,-0.01l-0.16 2.03c-0.05,0.26 -0.24,0.63 -0.49,0.63zm-1.92 -1.59c-1.17,0 -0.63,0 -0.99,0.27 0,-0.61 -0.64,-2.98 -0.9,-3.67 -0.14,-0.37 -0.3,-0.96 0.21,-1.06 0.58,-0.12 0.85,1.39 1.02,2.01 0.22,0.83 0.46,1.61 0.66,2.45z"/>
   <polygon class="fil1" points="17.17,13.01 17.68,10.28 19.61,10.28 19.61,15.94 18.12,15.94 18.12,12.35 18.04,12.35 17.37,15.94 16.76,15.94 16.08,12.35 16.01,12.35 16.01,15.94 14.53,15.94 14.53,10.28 16.43,10.28 17.01,13.01 "/>
   <polygon id="1" class="fil1" points="20.4,10.28 23.41,10.28 23.41,11.35 22.04,11.35 22.04,12.41 23.17,12.41 23.17,13.47 22.04,13.47 22.04,14.87 23.44,14.87 23.44,15.94 20.4,15.94 "/>
   <polygon id="2" class="fil1" points="23.59,10.28 27.05,10.28 27.05,11.35 26.13,11.35 26.13,15.94 24.52,15.94 24.52,11.35 23.59,11.35 "/>
   <path id="3" class="fil1" d="M29.05 11.5l-0.24 2.33 0.7 0 -0.3 -2.33 -0.16 0zm0.58 3.39l-0.94 0 -0.14 1.05 -1.6 0 1.01 -5.66 2.36 0 1.05 5.66 -1.61 0 -0.13 -1.05z"/>
   <polygon id="4" class="fil1" points="31.65,10.28 33.29,10.28 33.29,14.87 34.75,14.87 34.75,15.94 31.65,15.94 "/>
   <path id="path7" class="fil0" d="M5.2 10.29l0.55 0c0.03,0 0.06,0.03 0.06,0.05l0 5.53c0,0.03 -0.03,0.06 -0.06,0.06l-0.55 0c-0.03,0 -0.05,-0.03 -0.05,-0.06l0 -5.53c0,-0.02 0.02,-0.05 0.05,-0.05l0 0zm3.79 4.55l0 0.13c0,0.07 -0.01,0.15 -0.03,0.25 -0.02,0.1 -0.08,0.22 -0.17,0.32 -0.08,0.1 -0.21,0.19 -0.39,0.27 -0.18,0.07 -0.42,0.11 -0.73,0.11 -0.32,0 -0.55,-0.04 -0.73,-0.11 -0.18,-0.07 -0.3,-0.17 -0.4,-0.27 -0.08,-0.1 -0.14,-0.22 -0.15,-0.32 -0.02,-0.11 -0.04,-0.19 -0.04,-0.25l0 -3.14c0,-0.03 0.02,-0.06 0.05,-0.06l0.55 0c0.03,0 0.06,0.03 0.06,0.06l0 2.95c0,0.1 0.01,0.16 0.02,0.21 0.02,0.06 0.04,0.12 0.08,0.16 0.05,0.06 0.11,0.1 0.19,0.13 0.09,0.03 0.2,0.05 0.34,0.05 0.16,0 0.28,-0.02 0.37,-0.05 0.08,-0.03 0.15,-0.07 0.2,-0.12 0.04,-0.05 0.07,-0.1 0.09,-0.16 0.01,-0.06 0.03,-0.1 0.03,-0.24l0 -2.93c0,-0.03 0.02,-0.06 0.05,-0.06l0.55 0c0.04,0 0.05,0.03 0.05,0.06l0.01 3.01 0 0zm1.88 -3.06l0.37 0c0.03,0 0.06,0.04 0.05,0.07l-0.13 0.48c0,0.02 -0.03,0.04 -0.04,0.04l-0.27 0c-0.14,0 -0.25,0.02 -0.34,0.06 -0.07,0.04 -0.15,0.07 -0.19,0.12 -0.04,0.06 -0.07,0.1 -0.09,0.16 -0.01,0.06 -0.01,0.11 -0.01,0.16l0 3.01c0,0.02 -0.03,0.05 -0.05,0.05l-0.57 0c-0.02,0 -0.05,-0.03 -0.05,-0.05l0 -3.15c0,-0.06 0.01,-0.14 0.04,-0.24 0.01,-0.11 0.07,-0.21 0.16,-0.32 0.08,-0.1 0.22,-0.19 0.4,-0.27 0.17,-0.08 0.41,-0.12 0.72,-0.12l0 0 0 0zm-7.58 0c0.44,0 0.78,0.09 0.99,0.27 0.21,0.18 0.31,0.4 0.31,0.67l0 2.25c0,0.1 -0.01,0.19 -0.05,0.31 -0.03,0.11 -0.1,0.22 -0.19,0.3 -0.1,0.09 -0.23,0.17 -0.4,0.23 -0.17,0.07 -0.39,0.09 -0.66,0.09 -0.28,0 -0.49,-0.03 -0.66,-0.09 -0.17,-0.06 -0.3,-0.14 -0.4,-0.23 -0.1,-0.09 -0.16,-0.19 -0.19,-0.3 -0.03,-0.11 -0.06,-0.21 -0.06,-0.31l0 -0.35c0,-0.19 0.05,-0.37 0.15,-0.54 0.11,-0.16 0.25,-0.27 0.42,-0.33 0.1,-0.03 0.2,-0.07 0.32,-0.11 0.11,-0.04 0.23,-0.07 0.34,-0.12 0.11,-0.04 0.2,-0.07 0.29,-0.1 0.08,-0.03 0.13,-0.04 0.16,-0.06 0.02,-0.01 0.04,-0.01 0.07,-0.03 0.04,-0.03 0.06,-0.05 0.1,-0.08 0.04,-0.04 0.06,-0.08 0.08,-0.12 0.02,-0.05 0.03,-0.1 0.03,-0.16l0 -0.15c0,-0.05 -0.01,-0.09 -0.03,-0.15 -0.02,-0.06 -0.06,-0.1 -0.11,-0.16 -0.05,-0.04 -0.12,-0.07 -0.2,-0.11 -0.08,-0.02 -0.19,-0.04 -0.32,-0.04 -0.26,0 -0.42,0.06 -0.52,0.16 -0.08,0.09 -0.13,0.21 -0.13,0.33 0,0.03 -0.03,0.05 -0.06,0.05l-0.54 0c-0.02,0 -0.05,-0.03 -0.05,-0.06l0 -0.13c0,-0.13 0.03,-0.25 0.07,-0.36 0.05,-0.12 0.13,-0.22 0.24,-0.3 0.1,-0.09 0.24,-0.16 0.41,-0.2 0.17,-0.03 0.36,-0.07 0.59,-0.07l0 0 0 0zm0.66 2.04c-0.01,0.05 -0.04,0.09 -0.08,0.11 -0.04,0.04 -0.07,0.04 -0.11,0.06 -0.08,0.03 -0.16,0.06 -0.25,0.09 -0.08,0.03 -0.17,0.06 -0.25,0.08 -0.09,0.04 -0.19,0.07 -0.26,0.1 -0.06,0.03 -0.12,0.06 -0.18,0.1 -0.05,0.04 -0.09,0.09 -0.13,0.16 -0.04,0.07 -0.06,0.14 -0.06,0.24 0,0.2 0.05,0.34 0.14,0.44 0.1,0.09 0.27,0.14 0.52,0.14 0.25,0 0.43,-0.05 0.53,-0.15 0.09,-0.1 0.14,-0.24 0.14,-0.42l-0.01 -0.95 0 0zm8.9 -2.04c0.45,0 0.78,0.09 0.99,0.27 0.21,0.18 0.32,0.4 0.32,0.67l0 2.25c0,0.1 -0.03,0.19 -0.06,0.31 -0.03,0.11 -0.1,0.22 -0.19,0.3 -0.09,0.09 -0.23,0.17 -0.4,0.23 -0.17,0.07 -0.38,0.09 -0.66,0.09 -0.27,0 -0.49,-0.03 -0.66,-0.09 -0.16,-0.06 -0.3,-0.14 -0.4,-0.23 -0.09,-0.09 -0.16,-0.19 -0.19,-0.3 -0.04,-0.12 -0.05,-0.21 -0.05,-0.31l0 -0.35c0,-0.19 0.05,-0.37 0.15,-0.54 0.09,-0.16 0.24,-0.27 0.43,-0.33 0.09,-0.03 0.19,-0.07 0.3,-0.11 0.12,-0.04 0.23,-0.07 0.35,-0.12 0.11,-0.04 0.2,-0.07 0.29,-0.1 0.08,-0.03 0.13,-0.04 0.15,-0.06 0.02,-0.01 0.05,-0.01 0.08,-0.03 0.03,-0.03 0.07,-0.05 0.1,-0.08 0.03,-0.04 0.06,-0.08 0.07,-0.12 0.03,-0.05 0.04,-0.1 0.04,-0.16l0 -0.15c0,-0.05 -0.01,-0.09 -0.04,-0.15 -0.01,-0.06 -0.06,-0.1 -0.1,-0.16 -0.05,-0.04 -0.12,-0.07 -0.2,-0.11 -0.09,-0.02 -0.19,-0.04 -0.33,-0.04 -0.25,0 -0.42,0.06 -0.52,0.16 -0.07,0.09 -0.12,0.21 -0.13,0.33 0,0.03 -0.02,0.05 -0.05,0.05l-0.56 0c-0.03,0 -0.05,-0.03 -0.05,-0.06l0 -0.13c0,-0.13 0.02,-0.25 0.07,-0.36 0.05,-0.1 0.13,-0.21 0.24,-0.3 0.1,-0.08 0.24,-0.16 0.41,-0.19 0.17,-0.04 0.37,-0.08 0.6,-0.08l0 0 0 0zm0.66 2.04c-0.01,0.05 -0.05,0.09 -0.08,0.11 -0.04,0.04 -0.07,0.04 -0.11,0.06 -0.08,0.03 -0.17,0.06 -0.25,0.09 -0.09,0.03 -0.18,0.06 -0.25,0.08 -0.1,0.04 -0.19,0.07 -0.27,0.1 -0.06,0.03 -0.12,0.06 -0.18,0.1 -0.04,0.04 -0.08,0.09 -0.12,0.16 -0.04,0.07 -0.06,0.14 -0.06,0.24 0,0.2 0.05,0.34 0.14,0.44 0.09,0.09 0.27,0.14 0.51,0.14 0.26,0 0.43,-0.05 0.53,-0.15 0.09,-0.1 0.14,-0.24 0.14,-0.42l0 -0.95 0 0z"/>
  </g>
 </g>
</svg>
