<?xml version="1.0" encoding="UTF-8"?>
<!DOCTYPE svg PUBLIC "-//W3C//DTD SVG 1.1//EN" "http://www.w3.org/Graphics/SVG/1.1/DTD/svg11.dtd">
<!-- Creator: CorelDRAW 2019 (64-Bit) -->
<svg xmlns="http://www.w3.org/2000/svg" xml:space="preserve" width="367px" height="158px" version="1.1" style="shape-rendering:geometricPrecision; text-rendering:geometricPrecision; image-rendering:optimizeQuality; fill-rule:evenodd; clip-rule:evenodd"
viewBox="0 0 23.98 10.33"
 xmlns:xlink="http://www.w3.org/1999/xlink">
 <defs>
  <style type="text/css">
   <![CDATA[
    .fil0 {fill:#FEFEFE}
    .fil1 {fill:#FEFEFE;fill-rule:nonzero}
   ]]>
  </style>
 </defs>
 <g id="Capa_x0020_1">
  <metadata id="CorelCorpID_0Corel-Layer"/>
  <g id="_2012777132304">
   <path class="fil0" d="M12.14 4.26l-0.04 -0.05 0.04 0.05zm11.84 1.47l-0.49 -0.04 -0.63 -0.76 0.07 0.94 -0.37 -0.35 -0.05 0.21 -0.35 -3.98 -0.4 3.97 -0.14 -0.62 -0.36 0.59 -0.3 -0.79 -0.35 0.99 -0.52 -0.53 -0.2 0.36 -0.95 -0.51 -0.7 0.65 -0.42 -1.14 -0.54 0.96 -0.16 -0.69 -0.28 0.93 -0.28 -3.59 -0.7 3.6 -0.22 -0.41 -0.22 0.25 -0.17 -0.84 -0.56 0.78 -1.25 0.15 0.03 -0.06c0.06,-0.13 0.09,-0.29 0.14,-0.46 0.12,-0.35 0.23,-0.57 0.24,-0.95 0.05,-0.85 0.71,-3.28 0.69,-3.56 -0.04,-0.38 -0.82,-0.96 -1.16,0.43 -0.08,0.33 -0.18,0.65 -0.26,0.98l-0.02 -0.06c-0.06,-0.12 -0.14,-0.26 -0.28,-0.32 -0.24,-0.1 -0.39,-0.01 -0.6,0.04 -0.06,-0.23 -0.38,-0.38 -0.63,-0.25 -0.27,0.12 -0.31,0.32 -0.31,0.72 -0.01,-0.01 -0.01,-0.03 -0.02,-0.03l-0.3 -1.02c-0.08,-0.33 -0.2,-0.81 -0.35,-1.07 -0.27,-0.46 -1.09,-0.31 -0.81,0.64l0.47 1.64c0.09,0.32 0.2,0.89 0.02,1.21 -0.32,0.52 -0.38,0.29 -0.15,0.97 0.11,0.34 0.24,0.71 0.32,1.06l-1.16 -0.15 -0.57 -0.78 -0.17 0.84 -0.22 -0.26 -0.22 0.41 -0.68 -3.6 -0.3 3.59 -0.27 -0.93 -0.17 0.68 -0.54 -0.96 -0.42 1.14 -0.69 -0.66 -0.96 0.51 -0.2 -0.36 -0.52 0.53 -0.35 -0.99 -0.29 0.79 -0.37 -0.59 -0.14 0.62 -0.38 -3.98 -0.37 3.98 -0.04 -0.22 -0.38 0.35 0.07 -0.93 -0.63 0.76 -0.49 0.03 0.01 0.19 0.58 -0.04 0.3 -0.36 -0.06 0.83 0.48 -0.46 0.24 1.08 0.3 -3.16 0.3 3.15 0.3 -1.34 0.32 0.52 0.25 -0.66 0.28 0.79 0.55 -0.57 0.16 0.3 1 -0.53 0.81 0.76 0.38 -1.02 0.57 1.02 0.11 -0.46 0.36 1.24 0.28 -3.22 0.51 2.75 0.35 -0.64 0.29 0.34 0.16 -0.79 0.36 0.49 1.44 0.18 0.05 -0.04c0,-0.01 0,-0.02 0,-0.03 0,0 0,0 0,-0.01 -0.04,-0.45 -0.25,-0.99 -0.39,-1.38 -0.17,-0.47 0.18,-0.6 0.52,-1.25 0.34,0 1.54,-0.2 1.35,0.4 -0.06,0.17 -0.19,0.24 -0.28,0.37 -0.22,-0.1 -0.72,-0.29 -0.9,-0.04 0.17,0.26 0.58,0.02 0.96,0.37 0.11,0.11 0.2,0.28 0.25,0.44 0.03,0.09 0.02,0.18 0.06,0.28 0.04,0.15 0.03,0.14 0.19,0.15 0.08,-0.38 -0.13,-0.72 -0.3,-0.98 0.27,0.06 0.46,0.16 0.67,-0.1 0.16,-0.2 0.19,-0.44 0.25,-0.73 0.07,-0.28 0.11,-0.5 0.17,-0.78l0.4 -1.53c0.19,-0.77 0.86,-0.74 0.64,0.12l-0.63 3.28c-0.03,0.3 -0.14,0.49 -0.22,0.76 -0.12,0.4 -0.13,0.71 -0.1,0.77 0,0 0.01,0 0.01,0 0,0 0,0 0,0l0.01 0.02 1.45 -0.18 0.36 -0.49 0.16 0.79 0.3 -0.33 0.33 0.64 0.54 -2.75 0.29 2.68 0.33 -0.69 0.11 0.46 0.58 -1.02 0.36 1.02 0.82 -0.76 1 0.54 0.16 -0.3 0.55 0.57 0.29 -0.78 0.24 0.66 0.33 -0.52 0.29 1.34 0.31 -3.15 0.28 3.16 0.25 -1.07 0.48 0.46 -0.05 -0.83 0.3 0.36 0.57 0.04 0.01 -0.19zm-11.88 -1.52l0 0zm-0.05 -1.11l-0.6 0c0,-0.41 -0.07,-1.29 0.3,-1.29 0.53,0 0.3,0.55 0.3,1.29zm0.43 1.03c-0.18,0 -0.17,-0.02 -0.3,-0.09 0.05,-0.18 0.2,-0.21 0.2,-0.47 0,-0.27 -0.17,-0.23 -0.15,-0.5l0.03 -0.66c0.03,-0.55 0.69,-0.49 0.65,-0.01l-0.11 1.32c-0.03,0.17 -0.16,0.41 -0.32,0.41zm-1.24 -1.03c-0.76,0 -0.41,0 -0.65,0.17 0,-0.39 -0.41,-1.93 -0.58,-2.37 -0.09,-0.24 -0.19,-0.63 0.14,-0.69 0.37,-0.08 0.55,0.9 0.66,1.3 0.14,0.54 0.3,1.04 0.43,1.59z"/>
   <polygon class="fil1" points="11.13,8.43 11.46,6.66 12.71,6.66 12.71,10.33 11.75,10.33 11.75,8 11.69,8 11.26,10.33 10.86,10.33 10.42,8 10.37,8 10.37,10.33 9.41,10.33 9.41,6.66 10.65,6.66 11.03,8.43 "/>
   <polygon id="1" class="fil1" points="13.22,6.66 15.17,6.66 15.17,7.35 14.28,7.35 14.28,8.04 15.02,8.04 15.02,8.73 14.28,8.73 14.28,9.64 15.19,9.64 15.19,10.33 13.22,10.33 "/>
   <polygon id="2" class="fil1" points="15.29,6.66 17.53,6.66 17.53,7.35 16.94,7.35 16.94,10.33 15.89,10.33 15.89,7.35 15.29,7.35 "/>
   <path id="3" class="fil1" d="M18.83 7.46l-0.16 1.5 0.46 0 -0.2 -1.5 -0.1 0zm0.37 2.19l-0.61 0 -0.09 0.68 -1.03 0 0.65 -3.67 1.53 0 0.68 3.67 -1.04 0 -0.09 -0.68z"/>
   <polygon id="4" class="fil1" points="20.51,6.66 21.57,6.66 21.57,9.64 22.52,9.64 22.52,10.33 20.51,10.33 "/>
   <path id="path7" class="fil0" d="M3.37 6.67l0.36 0c0.02,0 0.03,0.02 0.03,0.03l0 3.58c0,0.02 -0.01,0.04 -0.03,0.04l-0.36 0c-0.02,0 -0.03,-0.02 -0.03,-0.04l0 -3.58c0,-0.01 0.01,-0.03 0.03,-0.03l0 0zm2.46 2.95l0 0.08c0,0.05 -0.01,0.1 -0.02,0.17 -0.01,0.06 -0.05,0.13 -0.11,0.2 -0.05,0.06 -0.14,0.12 -0.25,0.18 -0.12,0.04 -0.28,0.07 -0.48,0.07 -0.2,0 -0.35,-0.03 -0.47,-0.07 -0.12,-0.05 -0.19,-0.11 -0.26,-0.18 -0.05,-0.07 -0.09,-0.14 -0.1,-0.2 -0.01,-0.07 -0.03,-0.13 -0.03,-0.17l0 -2.03c0,-0.02 0.02,-0.04 0.04,-0.04l0.35 0c0.03,0 0.04,0.02 0.04,0.04l0 1.91c0,0.06 0.01,0.1 0.02,0.14 0.01,0.03 0.02,0.07 0.05,0.1 0.03,0.03 0.07,0.06 0.12,0.08 0.06,0.02 0.13,0.04 0.22,0.04 0.11,0 0.18,-0.02 0.24,-0.04 0.05,-0.02 0.1,-0.05 0.13,-0.08 0.03,-0.03 0.05,-0.06 0.06,-0.1 0,-0.04 0.02,-0.06 0.02,-0.15l0 -1.9c0,-0.02 0.01,-0.04 0.03,-0.04l0.36 0c0.02,0 0.03,0.02 0.03,0.04l0.01 1.95 0 0zm1.21 -1.98l0.24 0c0.03,0 0.04,0.02 0.04,0.04l-0.09 0.31c0,0.02 -0.01,0.03 -0.03,0.03l-0.17 0c-0.09,0 -0.16,0.01 -0.22,0.03 -0.05,0.03 -0.1,0.05 -0.12,0.08 -0.03,0.04 -0.05,0.07 -0.06,0.11 0,0.03 -0.01,0.07 -0.01,0.1l0 1.95c0,0.01 -0.02,0.03 -0.03,0.03l-0.37 0c-0.01,0 -0.03,-0.02 -0.03,-0.03l0 -2.04c0,-0.04 0.01,-0.09 0.02,-0.16 0.01,-0.07 0.05,-0.13 0.11,-0.2 0.05,-0.07 0.14,-0.12 0.26,-0.18 0.11,-0.05 0.27,-0.07 0.46,-0.07l0 0 0 0zm-4.91 0c0.29,0 0.51,0.06 0.64,0.17 0.14,0.12 0.21,0.26 0.21,0.43l0 1.46c0,0.07 -0.01,0.13 -0.04,0.2 -0.02,0.07 -0.06,0.14 -0.12,0.2 -0.06,0.05 -0.15,0.11 -0.26,0.15 -0.11,0.04 -0.25,0.05 -0.43,0.05 -0.18,0 -0.32,-0.02 -0.43,-0.05 -0.11,-0.04 -0.19,-0.1 -0.26,-0.15 -0.06,-0.06 -0.1,-0.13 -0.12,-0.2 -0.02,-0.07 -0.04,-0.13 -0.04,-0.2l0 -0.23c0,-0.12 0.04,-0.24 0.1,-0.34 0.07,-0.11 0.16,-0.18 0.27,-0.22 0.07,-0.02 0.13,-0.04 0.21,-0.07 0.07,-0.02 0.15,-0.05 0.22,-0.08 0.07,-0.03 0.13,-0.04 0.19,-0.06 0.05,-0.02 0.09,-0.03 0.1,-0.04 0.01,-0.01 0.03,-0.01 0.05,-0.02 0.02,-0.02 0.04,-0.03 0.06,-0.06 0.03,-0.02 0.04,-0.04 0.05,-0.07 0.02,-0.03 0.02,-0.06 0.02,-0.11l0 -0.09c0,-0.04 0,-0.06 -0.02,-0.1 -0.01,-0.04 -0.04,-0.06 -0.07,-0.1 -0.03,-0.03 -0.08,-0.05 -0.13,-0.07 -0.05,-0.02 -0.12,-0.03 -0.21,-0.03 -0.16,0 -0.27,0.04 -0.33,0.1 -0.05,0.06 -0.08,0.14 -0.09,0.22 0,0.02 -0.01,0.03 -0.04,0.03l-0.34 0c-0.02,0 -0.04,-0.02 -0.04,-0.04l0 -0.08c0,-0.08 0.02,-0.16 0.05,-0.23 0.03,-0.08 0.08,-0.15 0.15,-0.2 0.07,-0.06 0.16,-0.1 0.27,-0.13 0.11,-0.02 0.23,-0.04 0.38,-0.04l0 0 0 0zm0.43 1.31c-0.01,0.04 -0.03,0.06 -0.05,0.08 -0.03,0.02 -0.05,0.03 -0.07,0.04 -0.05,0.02 -0.11,0.03 -0.17,0.06 -0.05,0.02 -0.11,0.03 -0.16,0.05 -0.05,0.02 -0.12,0.04 -0.17,0.06 -0.03,0.02 -0.07,0.04 -0.11,0.07 -0.03,0.02 -0.06,0.06 -0.09,0.1 -0.02,0.04 -0.03,0.09 -0.03,0.16 0,0.12 0.03,0.22 0.09,0.28 0.06,0.06 0.17,0.09 0.33,0.09 0.17,0 0.28,-0.03 0.34,-0.1 0.06,-0.06 0.09,-0.15 0.09,-0.27l0 -0.62 0 0zm5.77 -1.31c0.29,0 0.5,0.06 0.64,0.17 0.14,0.12 0.21,0.26 0.21,0.43l0 1.46c0,0.07 -0.02,0.13 -0.04,0.2 -0.02,0.07 -0.07,0.14 -0.12,0.2 -0.06,0.05 -0.15,0.11 -0.26,0.15 -0.11,0.04 -0.25,0.05 -0.43,0.05 -0.18,0 -0.32,-0.02 -0.43,-0.05 -0.11,-0.04 -0.19,-0.1 -0.26,-0.15 -0.06,-0.06 -0.1,-0.13 -0.12,-0.2 -0.03,-0.07 -0.04,-0.14 -0.04,-0.2l0 -0.23c0,-0.12 0.04,-0.24 0.1,-0.34 0.06,-0.11 0.16,-0.18 0.28,-0.22 0.06,-0.02 0.12,-0.04 0.2,-0.07 0.07,-0.02 0.15,-0.05 0.22,-0.08 0.07,-0.03 0.13,-0.04 0.19,-0.06 0.05,-0.02 0.08,-0.03 0.1,-0.04 0.01,-0.01 0.03,-0.01 0.05,-0.02 0.02,-0.02 0.04,-0.03 0.06,-0.06 0.02,-0.02 0.04,-0.04 0.05,-0.07 0.02,-0.03 0.02,-0.06 0.02,-0.11l0 -0.09c0,-0.04 0,-0.06 -0.02,-0.1 -0.01,-0.04 -0.04,-0.06 -0.07,-0.1 -0.03,-0.03 -0.07,-0.05 -0.13,-0.07 -0.05,-0.02 -0.12,-0.03 -0.21,-0.03 -0.16,0 -0.27,0.04 -0.33,0.1 -0.05,0.06 -0.08,0.14 -0.09,0.22 0,0.02 -0.02,0.03 -0.03,0.03l-0.37 0c-0.01,0 -0.03,-0.02 -0.03,-0.04l0 -0.08c0,-0.08 0.02,-0.16 0.05,-0.23 0.03,-0.07 0.08,-0.14 0.15,-0.2 0.07,-0.05 0.16,-0.1 0.27,-0.13 0.11,-0.02 0.24,-0.04 0.39,-0.04l0 0 0 0zm0.42 1.31c0,0.04 -0.02,0.06 -0.05,0.08 -0.02,0.02 -0.04,0.03 -0.07,0.04 -0.05,0.02 -0.11,0.03 -0.16,0.06 -0.06,0.02 -0.11,0.03 -0.16,0.05 -0.07,0.02 -0.13,0.04 -0.17,0.06 -0.05,0.02 -0.08,0.04 -0.12,0.07 -0.03,0.02 -0.05,0.06 -0.08,0.1 -0.03,0.04 -0.04,0.09 -0.04,0.16 0,0.12 0.03,0.22 0.09,0.28 0.06,0.06 0.17,0.09 0.33,0.09 0.17,0 0.28,-0.03 0.35,-0.1 0.06,-0.06 0.09,-0.15 0.09,-0.27l-0.01 -0.62 0 0z"/>
  </g>
 </g>
</svg>
