<?xml version="1.0" encoding="UTF-8"?>
<!DOCTYPE svg PUBLIC "-//W3C//DTD SVG 1.1//EN" "http://www.w3.org/Graphics/SVG/1.1/DTD/svg11.dtd">
<!-- Creator: CorelDRAW 2019 (64-Bit) -->
<svg xmlns="http://www.w3.org/2000/svg" xml:space="preserve" width="150px" height="117px" version="1.1" style="shape-rendering:geometricPrecision; text-rendering:geometricPrecision; image-rendering:optimizeQuality; fill-rule:evenodd; clip-rule:evenodd"
viewBox="0 0 13.39 10.48"
 xmlns:xlink="http://www.w3.org/1999/xlink">
 <defs>
  <style type="text/css">
   <![CDATA[
    .fil0 {fill:#DCD7C9}
    .fil1 {fill:#DCD7C9;fill-rule:nonzero}
   ]]>
  </style>
 </defs>
 <g id="Capa_x0020_1">
  <metadata id="CorelCorpID_0Corel-Layer"/>
  <g id="_1884116952416">
   <path class="fil0" d="M0.25 10.32l-0.04 -0.51c-0.05,0.16 -0.09,0.45 -0.05,0.62 1.08,0 2.18,0.04 3.28,0.04l9.95 0.01c-0.02,-1.74 -0.1,-3.46 -0.08,-5.2l-0.01 -3.86c-0.01,-0.25 0.01,-1.05 -0.14,-1.22 -0.13,0.73 -0.07,1.75 -0.07,2.51 0,0.84 0,1.67 0.02,2.5 0.04,1.68 -0.02,3.39 -0.02,5.06l-12.84 0.05z"/>
   <path class="fil0" d="M0.21 8.74c0.11,-1.41 0,-2.82 0.02,-4.23 0.02,-1.43 -0.03,-2.87 -0.03,-4.3 1.09,0 2.2,0.01 3.28,-0.02 1.11,-0.03 2.1,-0.07 3.21,-0.06 0.9,0.01 6.11,0.1 6.59,-0.02 -0.49,-0.21 -5.59,-0.06 -6.54,-0.04 -1.13,0.03 -2.22,0 -3.34,-0.03 -1.15,-0.02 -2.26,0.01 -3.4,0.01 0,1.47 0.05,2.93 0.05,4.4 0,0.36 0.06,0.7 0.05,1.06 0,0.66 -0.06,2.87 0.11,3.23z"/>
  </g>
  <g id="_1884116953760">
   <g>
    <polygon class="fil1" points="3.45,2.66 3.45,2.14 5.78,0.87 5.78,1.43 3.93,2.4 5.78,3.39 5.78,3.95 "/>
    <path id="brush-svgrepo-com.svg" class="fil0" d="M7.41 1.17c-0.06,0.22 -0.22,0.84 -0.35,1.34l-0.55 -0.21c0.2,-0.45 0.45,-1.01 0.54,-1.22 0.16,-0.35 0.33,-0.6 0.41,-0.57 0.05,0.02 0.06,0.26 -0.05,0.66zm-0.38 1.45c-0.05,0.19 -0.09,0.35 -0.12,0.45l-0.64 -0.22c0.05,-0.1 0.12,-0.26 0.2,-0.45l0.56 0.22 0 0zm-0.15 0.56l0 0c0.19,1.1 -1.2,1.06 -1.2,1.06 0,0 0.5,-0.16 0.3,-0.61 -0.2,-0.43 0.22,-0.67 0.25,-0.68l0.65 0.23c0,0 0,0 0,0l0 0z"/>
    <polygon class="fil1" points="9.94,2.66 9.94,2.14 7.61,0.87 7.61,1.43 9.46,2.4 7.61,3.39 7.61,3.95 "/>
   </g>
   <path class="fil1" d="M4.84 7.05c-0.13,0.29 -0.33,0.51 -0.59,0.66 -0.25,0.15 -0.55,0.23 -0.9,0.23 -0.22,0 -0.43,-0.04 -0.62,-0.1 -0.19,-0.06 -0.37,-0.16 -0.52,-0.28 -0.2,-0.17 -0.36,-0.36 -0.46,-0.58 -0.1,-0.22 -0.15,-0.47 -0.15,-0.73 0,-0.52 0.16,-0.93 0.5,-1.26 0.33,-0.33 0.76,-0.49 1.28,-0.49 0.3,0 0.57,0.06 0.79,0.18 0.22,0.12 0.42,0.31 0.58,0.56l-0.42 0.31c-0.1,-0.22 -0.22,-0.38 -0.36,-0.48 -0.15,-0.11 -0.31,-0.16 -0.5,-0.16 -0.28,0 -0.5,0.11 -0.65,0.34 -0.16,0.23 -0.24,0.55 -0.24,0.97 0,0.38 0.09,0.69 0.27,0.93 0.18,0.24 0.41,0.35 0.7,0.35 0.19,0 0.35,-0.06 0.5,-0.17 0.16,-0.12 0.29,-0.3 0.4,-0.53l0.39 0.25z"/>
   <polygon id="1" class="fil1" points="7.27,5.97 7.27,4.57 8.19,4.57 8.19,7.86 7.27,7.86 7.27,6.42 6.28,6.42 6.28,7.86 5.36,7.86 5.36,4.57 6.28,4.57 6.28,5.97 "/>
   <path id="2" class="fil1" d="M9.51 6.47l0.81 0 -0.42 -1.18 -0.39 1.18zm-0.94 1.39l1.13 -3.29 0.89 0 1.2 3.29 -0.97 0 -0.35 -0.98 -1.1 0 -0.33 0.98 -0.47 0z"/>
   <path class="fil1" d="M2.52 9.43c0,0.08 -0.01,0.15 -0.03,0.22 -0.03,0.06 -0.06,0.12 -0.11,0.16 -0.04,0.05 -0.1,0.09 -0.16,0.11 -0.07,0.03 -0.14,0.04 -0.22,0.04l-0.39 0 0 -1.06 0.39 0c0.08,0 0.15,0.02 0.22,0.04 0.06,0.03 0.12,0.06 0.16,0.11 0.05,0.04 0.08,0.1 0.11,0.16 0.02,0.07 0.03,0.14 0.03,0.22zm-0.14 0c0,-0.06 -0.01,-0.12 -0.03,-0.17 -0.02,-0.05 -0.04,-0.1 -0.07,-0.13 -0.04,-0.04 -0.08,-0.06 -0.12,-0.08 -0.05,-0.02 -0.1,-0.03 -0.16,-0.03l-0.25 0 0 0.82 0.25 0c0.06,0 0.11,-0.01 0.16,-0.03 0.04,-0.01 0.08,-0.04 0.12,-0.08 0.03,-0.03 0.05,-0.07 0.07,-0.13 0.02,-0.05 0.03,-0.1 0.03,-0.17z"/>
   <path id="1" class="fil1" d="M3.15 9.21l0 0.75 -0.13 0 0 -0.75 0.13 0zm0.03 -0.23c0,0.01 0,0.02 -0.01,0.03 0,0.01 -0.01,0.02 -0.02,0.03 -0.01,0.01 -0.02,0.02 -0.03,0.02 -0.01,0.01 -0.02,0.01 -0.03,0.01 -0.02,0 -0.03,0 -0.04,-0.01 -0.01,0 -0.02,-0.01 -0.03,-0.02 -0.01,-0.01 -0.01,-0.02 -0.02,-0.03 0,-0.01 -0.01,-0.02 -0.01,-0.03 0,-0.02 0.01,-0.03 0.01,-0.04 0.01,-0.01 0.01,-0.02 0.02,-0.03 0.01,-0.01 0.02,-0.01 0.03,-0.02 0.01,0 0.02,-0.01 0.04,-0.01 0.01,0 0.02,0.01 0.03,0.01 0.01,0.01 0.02,0.01 0.03,0.02 0.01,0.01 0.02,0.02 0.02,0.03 0.01,0.01 0.01,0.02 0.01,0.04z"/>
   <path id="2" class="fil1" d="M4.12 9.34c-0.01,0.01 -0.02,0.01 -0.03,0.01 -0.01,0 -0.02,0 -0.02,-0.01 -0.01,0 -0.03,-0.01 -0.04,-0.01 -0.01,-0.01 -0.03,-0.02 -0.05,-0.02 -0.02,-0.01 -0.04,-0.01 -0.06,-0.01 -0.03,0 -0.05,0 -0.06,0.01 -0.02,0 -0.04,0.01 -0.05,0.02 -0.01,0.01 -0.02,0.02 -0.03,0.03 0,0.02 -0.01,0.03 -0.01,0.05 0,0.02 0.01,0.03 0.02,0.04 0.01,0.02 0.02,0.03 0.04,0.04 0.02,0.01 0.04,0.02 0.06,0.02 0.03,0.01 0.05,0.02 0.08,0.03 0.02,0 0.04,0.01 0.07,0.02 0.02,0.01 0.04,0.02 0.06,0.04 0.02,0.01 0.03,0.03 0.04,0.05 0.01,0.02 0.02,0.05 0.02,0.08 0,0.03 -0.01,0.07 -0.02,0.1 -0.01,0.03 -0.03,0.05 -0.05,0.07 -0.03,0.02 -0.06,0.04 -0.09,0.05 -0.04,0.01 -0.08,0.02 -0.12,0.02 -0.05,0 -0.1,-0.01 -0.14,-0.02 -0.05,-0.02 -0.08,-0.04 -0.11,-0.07l0.03 -0.05c0,-0.01 0.01,-0.01 0.01,-0.01 0.01,-0.01 0.02,-0.01 0.02,-0.01 0.01,0 0.02,0 0.03,0.01 0.01,0.01 0.02,0.01 0.04,0.02 0.01,0.01 0.03,0.02 0.05,0.03 0.02,0 0.04,0.01 0.07,0.01 0.03,0 0.05,-0.01 0.07,-0.01 0.02,-0.01 0.04,-0.02 0.05,-0.03 0.01,-0.01 0.02,-0.02 0.03,-0.04 0,-0.01 0.01,-0.03 0.01,-0.05 0,-0.02 -0.01,-0.03 -0.02,-0.05 -0.01,-0.01 -0.03,-0.02 -0.04,-0.03 -0.02,-0.01 -0.04,-0.02 -0.07,-0.03 -0.02,-0.01 -0.04,-0.01 -0.07,-0.02 -0.02,-0.01 -0.05,-0.02 -0.07,-0.03 -0.02,-0.01 -0.04,-0.02 -0.06,-0.04 -0.02,-0.01 -0.03,-0.03 -0.05,-0.05 -0.01,-0.02 -0.01,-0.05 -0.01,-0.08 0,-0.03 0,-0.06 0.02,-0.09 0.01,-0.02 0.02,-0.04 0.05,-0.06 0.02,-0.02 0.05,-0.04 0.08,-0.05 0.03,-0.01 0.07,-0.02 0.11,-0.02 0.05,0 0.1,0.01 0.14,0.02 0.03,0.02 0.07,0.04 0.1,0.07l-0.03 0.05z"/>
   <path id="3" class="fil1" d="M4.93 9.2c0.05,0 0.09,0.01 0.13,0.02 0.03,0.02 0.07,0.04 0.09,0.07 0.03,0.03 0.05,0.06 0.07,0.1 0.01,0.04 0.02,0.09 0.02,0.14 0,0.03 0,0.04 0,0.05 -0.01,0 -0.02,0.01 -0.03,0.01l-0.5 0c0,0.04 0.01,0.08 0.02,0.12 0.01,0.03 0.03,0.06 0.05,0.09 0.02,0.02 0.05,0.04 0.07,0.05 0.03,0.01 0.07,0.02 0.1,0.02 0.03,0 0.06,-0.01 0.09,-0.01 0.02,-0.01 0.04,-0.02 0.06,-0.03 0.01,-0.01 0.03,-0.02 0.04,-0.02 0.01,-0.01 0.02,-0.02 0.03,-0.02 0.01,0 0.02,0.01 0.03,0.02l0.03 0.05c-0.01,0.01 -0.03,0.03 -0.06,0.05 -0.02,0.01 -0.04,0.02 -0.07,0.03 -0.02,0.01 -0.05,0.02 -0.08,0.02 -0.03,0.01 -0.05,0.01 -0.08,0.01 -0.05,0 -0.1,-0.01 -0.14,-0.03 -0.05,-0.01 -0.08,-0.04 -0.12,-0.07 -0.03,-0.04 -0.05,-0.08 -0.07,-0.13 -0.02,-0.05 -0.03,-0.11 -0.03,-0.17 0,-0.05 0.01,-0.1 0.03,-0.15 0.01,-0.04 0.04,-0.08 0.07,-0.11 0.03,-0.04 0.06,-0.06 0.11,-0.08 0.04,-0.02 0.09,-0.03 0.14,-0.03zm0.01 0.1c-0.07,0 -0.12,0.02 -0.15,0.05 -0.04,0.04 -0.06,0.09 -0.07,0.15l0.4 0c0,-0.03 0,-0.05 -0.01,-0.08 -0.01,-0.03 -0.02,-0.05 -0.04,-0.07 -0.01,-0.01 -0.03,-0.03 -0.05,-0.04 -0.03,-0.01 -0.05,-0.01 -0.08,-0.01z"/>
   <path id="4" class="fil1" d="M5.72 9.96l0 -0.75 0.07 0c0.02,0 0.03,0.01 0.04,0.03l0.01 0.08c0.03,-0.04 0.07,-0.06 0.11,-0.09 0.04,-0.02 0.09,-0.03 0.14,-0.03 0.04,0 0.07,0.01 0.11,0.02 0.03,0.01 0.05,0.03 0.07,0.06 0.02,0.02 0.04,0.05 0.05,0.09 0.01,0.03 0.02,0.07 0.02,0.11l0 0.48 -0.13 0 0 -0.48c0,-0.05 -0.02,-0.1 -0.04,-0.13 -0.03,-0.03 -0.07,-0.05 -0.12,-0.05 -0.04,0 -0.08,0.01 -0.11,0.03 -0.03,0.02 -0.06,0.05 -0.09,0.08l0 0.55 -0.13 0zm0.39 -0.98c0.01,0 0.03,0 0.04,-0.02 0.01,-0.01 0.01,-0.02 0.01,-0.04l0.08 0c0,0.02 0,0.04 -0.01,0.06 0,0.02 -0.01,0.04 -0.02,0.05 -0.02,0.01 -0.03,0.03 -0.05,0.03 -0.01,0.01 -0.03,0.01 -0.05,0.01 -0.02,0 -0.03,0 -0.05,-0.01 -0.01,0 -0.03,-0.01 -0.04,-0.02 -0.01,-0.01 -0.03,-0.02 -0.04,-0.02 -0.01,-0.01 -0.02,-0.01 -0.03,-0.01 -0.04,0 -0.06,0.02 -0.06,0.06l-0.08 0c0,-0.02 0.01,-0.04 0.01,-0.06 0.01,-0.02 0.02,-0.04 0.03,-0.05 0.01,-0.02 0.02,-0.03 0.04,-0.04 0.02,0 0.03,-0.01 0.05,-0.01 0.02,0 0.04,0.01 0.05,0.01 0.02,0.01 0.03,0.02 0.04,0.03 0.02,0 0.03,0.01 0.04,0.02 0.01,0.01 0.02,0.01 0.04,0.01z"/>
   <path id="5" class="fil1" d="M7.14 9.2c0.06,0 0.11,0.01 0.15,0.03 0.05,0.02 0.08,0.04 0.11,0.08 0.04,0.03 0.06,0.07 0.08,0.12 0.01,0.04 0.02,0.1 0.02,0.16 0,0.05 -0.01,0.11 -0.02,0.15 -0.02,0.05 -0.04,0.09 -0.08,0.13 -0.03,0.03 -0.06,0.05 -0.11,0.07 -0.04,0.02 -0.09,0.03 -0.15,0.03 -0.05,0 -0.1,-0.01 -0.14,-0.03 -0.05,-0.02 -0.08,-0.04 -0.12,-0.07 -0.03,-0.04 -0.05,-0.08 -0.07,-0.13 -0.01,-0.04 -0.02,-0.1 -0.02,-0.15 0,-0.06 0.01,-0.12 0.02,-0.16 0.02,-0.05 0.04,-0.09 0.07,-0.12 0.04,-0.04 0.07,-0.06 0.12,-0.08 0.04,-0.02 0.09,-0.03 0.14,-0.03zm0 0.67c0.08,0 0.13,-0.03 0.17,-0.08 0.04,-0.05 0.05,-0.12 0.05,-0.2 0,-0.09 -0.01,-0.16 -0.05,-0.21 -0.04,-0.05 -0.09,-0.08 -0.17,-0.08 -0.03,0 -0.06,0.01 -0.09,0.02 -0.03,0.02 -0.05,0.03 -0.07,0.06 -0.02,0.02 -0.03,0.05 -0.04,0.09 -0.01,0.03 -0.02,0.07 -0.02,0.12 0,0.04 0.01,0.08 0.02,0.11 0.01,0.04 0.02,0.07 0.04,0.09 0.02,0.03 0.04,0.04 0.07,0.06 0.03,0.01 0.06,0.02 0.09,0.02z"/>
   <path id="6" class="fil1" d="M8.16 8.9l0.12 0c0.01,0 0.02,0.01 0.03,0.01 0.01,0.01 0.01,0.02 0.01,0.03l0.22 0.73c0.01,0.02 0.01,0.03 0.01,0.05 0.01,0.01 0.01,0.03 0.01,0.04 0.01,-0.01 0.01,-0.03 0.01,-0.04 0.01,-0.02 0.01,-0.03 0.01,-0.05l0.25 -0.73c0.01,-0.01 0.01,-0.02 0.02,-0.03 0.01,0 0.02,-0.01 0.03,-0.01l0.04 0c0.01,0 0.03,0.01 0.03,0.01 0.01,0.01 0.02,0.02 0.02,0.03l0.25 0.73c0.01,0.03 0.01,0.06 0.02,0.09 0,-0.01 0.01,-0.03 0.01,-0.05 0,-0.01 0,-0.02 0.01,-0.04l0.22 -0.73c0,-0.01 0.01,-0.02 0.01,-0.03 0.01,0 0.02,-0.01 0.04,-0.01l0.11 0 -0.33 1.06 -0.13 0 -0.27 -0.79c0,-0.02 -0.01,-0.04 -0.01,-0.06 -0.01,0.01 -0.01,0.02 -0.01,0.03 0,0.01 0,0.02 -0.01,0.03l-0.27 0.79 -0.12 0 -0.33 -1.06z"/>
   <path id="7" class="fil1" d="M10.33 9.2c0.05,0 0.09,0.01 0.13,0.02 0.04,0.02 0.07,0.04 0.1,0.07 0.02,0.03 0.05,0.06 0.06,0.1 0.02,0.04 0.02,0.09 0.02,0.14 0,0.03 0,0.04 0,0.05 -0.01,0 -0.02,0.01 -0.03,0.01l-0.49 0c0,0.04 0,0.08 0.01,0.12 0.02,0.03 0.03,0.06 0.05,0.09 0.02,0.02 0.05,0.04 0.08,0.05 0.03,0.01 0.06,0.02 0.09,0.02 0.04,0 0.06,-0.01 0.09,-0.01 0.02,-0.01 0.04,-0.02 0.06,-0.03 0.02,-0.01 0.03,-0.02 0.04,-0.02 0.01,-0.01 0.02,-0.02 0.03,-0.02 0.01,0 0.02,0.01 0.03,0.02l0.03 0.05c-0.01,0.01 -0.03,0.03 -0.05,0.05 -0.03,0.01 -0.05,0.02 -0.08,0.03 -0.02,0.01 -0.05,0.02 -0.08,0.02 -0.02,0.01 -0.05,0.01 -0.08,0.01 -0.05,0 -0.1,-0.01 -0.14,-0.03 -0.04,-0.01 -0.08,-0.04 -0.11,-0.07 -0.03,-0.04 -0.06,-0.08 -0.08,-0.13 -0.02,-0.05 -0.02,-0.11 -0.02,-0.17 0,-0.05 0,-0.1 0.02,-0.15 0.02,-0.04 0.04,-0.08 0.07,-0.11 0.03,-0.04 0.07,-0.06 0.11,-0.08 0.04,-0.02 0.09,-0.03 0.14,-0.03zm0.01 0.1c-0.07,0 -0.12,0.02 -0.15,0.05 -0.04,0.04 -0.06,0.09 -0.07,0.15l0.41 0c0,-0.03 -0.01,-0.05 -0.02,-0.08 0,-0.03 -0.02,-0.05 -0.03,-0.07 -0.02,-0.01 -0.04,-0.03 -0.06,-0.04 -0.03,-0.01 -0.05,-0.01 -0.08,-0.01z"/>
   <path id="8" class="fil1" d="M11.12 9.96l0 -1.09 0.13 0 0 0.46c0.04,-0.04 0.07,-0.07 0.11,-0.1 0.04,-0.02 0.09,-0.03 0.14,-0.03 0.04,0 0.08,0.01 0.12,0.02 0.03,0.02 0.06,0.04 0.09,0.08 0.02,0.03 0.04,0.07 0.05,0.12 0.02,0.04 0.02,0.1 0.02,0.16 0,0.06 -0.01,0.11 -0.02,0.15 -0.02,0.05 -0.04,0.09 -0.06,0.13 -0.03,0.03 -0.07,0.06 -0.11,0.08 -0.04,0.02 -0.08,0.03 -0.13,0.03 -0.05,0 -0.09,-0.01 -0.12,-0.03 -0.04,-0.02 -0.07,-0.04 -0.09,-0.08l-0.01 0.07c0,0.02 -0.01,0.03 -0.03,0.03l-0.09 0zm0.34 -0.66c-0.05,0 -0.08,0.01 -0.12,0.04 -0.03,0.02 -0.06,0.05 -0.09,0.08l0 0.36c0.03,0.03 0.05,0.05 0.08,0.07 0.03,0.01 0.06,0.02 0.1,0.02 0.07,0 0.12,-0.03 0.16,-0.08 0.04,-0.05 0.06,-0.12 0.06,-0.21 0,-0.05 -0.01,-0.09 -0.02,-0.13 -0.01,-0.03 -0.02,-0.06 -0.03,-0.08 -0.02,-0.02 -0.04,-0.04 -0.06,-0.05 -0.03,-0.01 -0.05,-0.02 -0.08,-0.02z"/>
  </g>
  <g id="_1884116956704">
   <path class="fil0" d="M11.85 0.37l0.22 0 0 0.23 -0.22 0 0 -0.23zm-0.1 0.28c0.01,0.06 0.09,0.05 0.16,0.05 0.05,0 0.18,0.01 0.21,0 0.07,-0.02 0.06,-0.09 0.06,-0.16 0,-0.28 0.03,-0.27 -0.17,-0.27 -0.27,0 -0.26,-0.03 -0.26,0.16 0,0.05 -0.01,0.19 0,0.22z"/>
   <path class="fil0" d="M12.75 0.48c0.03,-0.02 0.06,-0.06 0.09,-0.09 0.02,-0.01 0.08,-0.06 0.04,-0.1 -0.06,-0.07 -0.12,0.06 -0.2,0.12 -0.05,-0.03 -0.14,-0.17 -0.19,-0.14 -0.06,0.06 -0.02,0.08 0.02,0.12 0.03,0.03 0.06,0.07 0.09,0.09 -0.01,0.03 -0.07,0.08 -0.09,0.1 -0.04,0.04 -0.08,0.06 -0.02,0.12 0.05,0.03 0.14,-0.11 0.19,-0.14 0.07,0.06 0.15,0.2 0.2,0.12 0.04,-0.05 -0.07,-0.14 -0.13,-0.2z"/>
   <path class="fil0" d="M11.04 0.5c0.01,0.06 0.16,0.04 0.22,0.04 0.07,0 0.22,0.02 0.2,-0.06 -0.01,-0.07 -0.13,-0.05 -0.23,-0.05 -0.06,0 -0.21,-0.02 -0.19,0.07z"/>
  </g>
 </g>
</svg>
